<?xml version="1.0" encoding="UTF-8"?>
<svg version="1.1" xmlns="http://www.w3.org/2000/svg" width="214" height="215">
<path d="M0 0 C0.920728 0.00022659 1.84145599 0.00045319 2.79008484 0.00068665 C3.78079483 0.0161705 4.77150482 0.03165436 5.79223633 0.04760742 C6.80900955 0.05185226 7.82578278 0.05609711 8.87336731 0.06047058 C12.1239357 0.0772762 15.37388628 0.11493235 18.62426758 0.15307617 C20.82673259 0.16812055 23.02920731 0.18180938 25.23168945 0.1940918 C30.6335933 0.22718581 36.0351363 0.27740394 41.43676758 0.34057617 C42.58968442 2.64640986 42.59074096 4.03924504 42.64208984 6.60668945 C42.67200768 7.92783249 42.67200768 7.92783249 42.70252991 9.27566528 C42.7192424 10.227789 42.7359549 11.17991272 42.75317383 12.16088867 C42.77395493 13.13468475 42.79473602 14.10848083 42.81614685 15.11178589 C42.88165356 18.22964264 42.94053255 21.34758521 42.99926758 24.46557617 C43.04245173 26.57626221 43.08606598 28.6869395 43.13012695 30.79760742 C43.23733605 35.97850568 43.33910035 41.15948974 43.43676758 46.34057617 C43.84668945 45.65350586 44.25661133 44.96643555 44.67895508 44.25854492 C45.2177832 43.35749023 45.75661133 42.45643555 46.31176758 41.52807617 C46.84543945 40.63475586 47.37911133 39.74143555 47.92895508 38.82104492 C49.0555985 36.96762893 50.23363369 35.145277 51.43676758 33.34057617 C52.09676758 33.34057617 52.75676758 33.34057617 53.43676758 33.34057617 C53.70489258 32.61870117 53.97301758 31.89682617 54.24926758 31.15307617 C55.42884019 28.35935156 56.87896498 25.93691383 58.43676758 23.34057617 C59.13499375 21.6868826 59.81175363 20.02330603 60.43676758 18.34057617 C61.09676758 18.34057617 61.75676758 18.34057617 62.43676758 18.34057617 C63.09676758 17.02057617 63.75676758 15.70057617 64.43676758 14.34057617 C70.50566933 14.26648641 76.57430855 14.21200258 82.64355469 14.17578125 C84.70870549 14.16068346 86.77382418 14.14020343 88.83886719 14.11425781 C91.80517496 14.07791823 94.77105929 14.06085987 97.73754883 14.04760742 C98.66263748 14.03212357 99.58772614 14.01663971 100.54084778 14.00068665 C101.40151352 14.00046005 102.26217926 14.00023346 103.14892578 14 C103.90615433 13.99333817 104.66338287 13.98667633 105.44355774 13.97981262 C108.0377336 14.44934878 108.89806476 15.21989937 110.43676758 17.34057617 C110.835495 19.25785828 110.835495 19.25785828 110.86914062 21.44482422 C110.88893478 22.26544846 110.90872894 23.08607269 110.92912292 23.93156433 C110.93551285 24.81290543 110.94190277 25.69424652 110.94848633 26.60229492 C110.96643753 27.50808792 110.98438873 28.41388092 111.00288391 29.34712219 C111.05707417 32.24072613 111.09091044 35.13416432 111.12426758 38.02807617 C111.15743297 39.98968782 111.1919219 41.95127758 111.2277832 43.9128418 C111.31280564 48.72196714 111.37957517 53.53104259 111.43676758 58.34057617 C114.49396812 57.69195091 114.49396812 57.69195091 115.43676758 55.59057617 C115.76676758 54.84807617 116.09676758 54.10557617 116.43676758 53.34057617 C118.6194605 49.57047022 120.8885034 45.8752652 123.43676758 42.34057617 C124.09676758 42.34057617 124.75676758 42.34057617 125.43676758 42.34057617 C125.62239258 41.41245117 125.62239258 41.41245117 125.81176758 40.46557617 C126.43676758 38.34057617 126.43676758 38.34057617 128.43676758 36.34057617 C130.27175903 36.10006714 130.27175903 36.10006714 132.51928711 36.11352539 C133.78036789 36.11375198 133.78036789 36.11375198 135.06692505 36.11398315 C136.42948929 36.12946701 136.42948929 36.12946701 137.81958008 36.14526367 C139.21368607 36.14950851 139.21368607 36.14950851 140.63595581 36.15383911 C143.61135608 36.16505548 146.58645793 36.19016257 149.56176758 36.21557617 C151.57608615 36.22560409 153.59040944 36.23473027 155.60473633 36.24291992 C160.54886214 36.26499957 165.49276423 36.29953924 170.43676758 36.34057617 C170.43676758 37.00057617 170.43676758 37.66057617 170.43676758 38.34057617 C171.75676758 38.67057617 173.07676758 39.00057617 174.43676758 39.34057617 C174.50620823 50.5017314 174.55954865 61.66283542 174.59220409 72.82416248 C174.60787527 78.00655039 174.62914005 83.18879076 174.66308594 88.37109375 C174.69562757 93.37017458 174.71360965 98.3691133 174.72139931 103.36829185 C174.72695217 105.27772955 174.73779525 107.18715927 174.75395775 109.09653664 C174.77566304 111.76635309 174.77873741 114.43557859 174.77734375 117.10546875 C174.78812958 117.89884644 174.79891541 118.69222412 174.81002808 119.50964355 C174.78008016 124.79440945 174.78008016 124.79440945 173.18623352 127.33001709 C171.01318376 128.58525454 169.61244958 128.72693946 167.10473633 128.74462891 C165.7982312 128.76365517 165.7982312 128.76365517 164.46533203 128.7830658 C163.52778076 128.78013016 162.59022949 128.77719452 161.62426758 128.77416992 C160.65900146 128.77941177 159.69373535 128.78465363 158.69921875 128.79005432 C156.65829429 128.79647809 154.61733283 128.79513294 152.57641602 128.78662109 C149.44846934 128.77810802 146.32234638 128.80687282 143.19458008 128.83862305 C141.21280979 128.84023501 139.23103627 128.83965763 137.24926758 128.83666992 C136.31171631 128.8479039 135.37416504 128.85913788 134.40820312 128.87071228 C127.99407219 128.80163029 127.99407219 128.80163029 125.34179688 126.60742188 C124.33136932 124.07658297 124.09146251 122.29643988 124.14379883 119.57495117 C124.1534668 118.68549805 124.16313477 117.79604492 124.1730957 116.87963867 C124.19823242 115.95924805 124.22336914 115.03885742 124.24926758 114.09057617 C124.26280273 113.1547168 124.27633789 112.21885742 124.2902832 111.25463867 C124.32556804 108.9493629 124.37486476 106.64526557 124.43676758 104.34057617 C123.77676758 104.34057617 123.11676758 104.34057617 122.43676758 104.34057617 C122.34266602 104.87682617 122.24856445 105.41307617 122.15161133 105.96557617 C121.21543794 109.07592272 119.67169285 111.55899568 117.99926758 114.34057617 C116.02983563 117.62981533 114.09180921 120.88079066 112.43676758 124.34057617 C111.77676758 124.34057617 111.11676758 124.34057617 110.43676758 124.34057617 C110.31301758 124.95932617 110.18926758 125.57807617 110.06176758 126.21557617 C109.43676758 128.34057617 109.43676758 128.34057617 107.43676758 130.34057617 C105.58399963 130.60800171 105.58399963 130.60800171 103.31005859 130.63110352 C102.4590004 130.64386322 101.6079422 130.65662292 100.73109436 130.66976929 C99.3498362 130.67310776 99.3498362 130.67310776 97.94067383 130.67651367 C96.5239463 130.68649887 96.5239463 130.68649887 95.07859802 130.69668579 C93.07878572 130.70682198 91.07893953 130.71150251 89.07910156 130.71118164 C86.01481554 130.71555399 82.95197034 130.75186094 79.88793945 130.78979492 C77.94718918 130.79566297 76.00643206 130.79963244 74.06567383 130.80151367 C73.14685928 130.8158847 72.22804474 130.83025574 71.28138733 130.84506226 C65.01335017 130.79991078 65.01335017 130.79991078 62.36694336 128.69165039 C61.21219273 125.77294998 61.00202984 123.40327638 60.92504883 120.26245117 C60.88959961 119.10229492 60.85415039 117.94213867 60.81762695 116.74682617 C60.79506836 115.54026367 60.77250977 114.33370117 60.74926758 113.09057617 C60.71510742 111.86854492 60.68094727 110.64651367 60.64575195 109.38745117 C60.56329596 106.37191771 60.49413556 103.35667423 60.43676758 100.34057617 C59.49704102 101.74823242 59.49704102 101.74823242 58.53833008 103.18432617 C57.71316638 104.403318 56.88762605 105.62205494 56.06176758 106.84057617 C55.44301758 107.77063477 55.44301758 107.77063477 54.81176758 108.71948242 C53.7377709 110.29583238 52.59188225 111.82266375 51.43676758 113.34057617 C50.77676758 113.34057617 50.11676758 113.34057617 49.43676758 113.34057617 C49.34137695 113.88456055 49.24598633 114.42854492 49.14770508 114.98901367 C48.23611183 118.00428364 46.75619606 120.3131164 45.06176758 122.96557617 C44.15297852 124.40803711 44.15297852 124.40803711 43.22583008 125.87963867 C41.43676758 128.34057617 41.43676758 128.34057617 38.43676758 130.34057617 C35.46155563 130.57328985 32.58243197 130.6926744 29.60473633 130.71166992 C28.73536942 130.72069839 27.8660025 130.72972687 26.97029114 130.73902893 C25.13029424 130.75353626 23.29024569 130.76241937 21.45019531 130.76611328 C18.64469591 130.77798969 15.84141076 130.82715106 13.03637695 130.87768555 C11.24667412 130.88715244 9.4569578 130.8943862 7.66723633 130.89916992 C6.83266403 130.91870224 5.99809174 130.93823456 5.13822937 130.95835876 C4.34753555 130.95228104 3.55684174 130.94620331 2.7421875 130.93994141 C2.05396408 130.94501205 1.36574066 130.9500827 0.65666199 130.95530701 C-2.96176491 129.95329602 -5.46758998 128.41742494 -7.56323242 125.34057617 C-8.44978243 121.43893516 -8.35209762 117.60768556 -8.29199219 113.62133789 C-8.29768723 112.43549103 -8.30338226 111.24964417 -8.30924988 110.02786255 C-8.31844884 106.7836962 -8.30088225 103.54104711 -8.27039075 100.29705191 C-8.24399321 96.90053369 -8.2493226 93.50405228 -8.25047302 90.10745239 C-8.24766606 84.40614063 -8.22165224 78.7053088 -8.18066406 73.00415039 C-8.1334448 66.41191103 -8.11767142 59.82019651 -8.11987072 53.22780025 C-8.12189648 46.20754433 -8.10108131 39.18749081 -8.07353091 32.16729593 C-8.06713616 30.14447035 -8.06500731 28.1216774 -8.06381416 26.09884262 C-8.05733123 22.33263363 -8.03111759 18.56709176 -7.99902344 14.80102539 C-8.000383 13.67887634 -8.00174255 12.55672729 -8.00314331 11.40057373 C-7.99034836 10.37714874 -7.97755341 9.35372375 -7.96437073 8.29928589 C-7.95934319 7.40887541 -7.95431566 6.51846493 -7.94913578 5.60107231 C-7.14672571 0.90081557 -4.39496954 -0.03612304 0 0 Z " fill="#024F4F" transform="translate(24.563232421875,5.659423828125)"/>
<path d="M0 0 C14.19 0 28.38 0 43 0 C43 16.5 43 33 43 50 C43.66 50 44.32 50 45 50 C45.9727868 52.91836039 46.12658752 54.78567411 46.12939453 57.82275391 C46.13254669 58.80031647 46.13569885 59.77787903 46.13894653 60.7850647 C46.1369223 61.83825897 46.13489807 62.89145325 46.1328125 63.9765625 C46.13376923 65.05755219 46.13472595 66.13854187 46.13571167 67.25228882 C46.1363923 69.53700824 46.13454614 71.8217296 46.13037109 74.10644531 C46.12501087 77.61788229 46.13032538 81.12919196 46.13671875 84.640625 C46.13605815 86.85677112 46.13477737 89.07291716 46.1328125 91.2890625 C46.13483673 92.34630524 46.13686096 93.40354797 46.13894653 94.49282837 C46.13421829 95.94971573 46.13421829 95.94971573 46.12939453 97.43603516 C46.12859894 98.29524567 46.12780334 99.15445618 46.12698364 100.03970337 C46 102 46 102 45 103 C44.67 105.31 44.34 107.62 44 110 C29.81 110 15.62 110 1 110 C0.2253829 85.72459783 -0.13599766 61.50929575 -0.06866455 37.2244873 C-0.05626198 32.24602076 -0.05198147 27.2675403 -0.04621124 22.2890625 C-0.03675453 14.85934788 -0.01750457 7.42971944 0 0 Z " fill="#024F4F" transform="translate(88,23)"/>
<path d="M0 0 C14.19 0 28.38 0 43 0 C43 28.05 43 56.1 43 85 C28.81 85 14.62 85 0 85 C0 56.95 0 28.9 0 0 Z " fill="#024F4F" transform="translate(153,46)"/>
<path d="M0 0 C0.920728 0.00022659 1.84145599 0.00045319 2.79008484 0.00068665 C3.78079483 0.0161705 4.77150482 0.03165436 5.79223633 0.04760742 C6.80900955 0.05185226 7.82578278 0.05609711 8.87336731 0.06047058 C12.1239357 0.0772762 15.37388628 0.11493235 18.62426758 0.15307617 C20.82673259 0.16812055 23.02920731 0.18180938 25.23168945 0.1940918 C30.6335933 0.22718581 36.0351363 0.27740394 41.43676758 0.34057617 C42.58968442 2.64640986 42.59074096 4.03924504 42.64208984 6.60668945 C42.67200768 7.92783249 42.67200768 7.92783249 42.70252991 9.27566528 C42.7192424 10.227789 42.7359549 11.17991272 42.75317383 12.16088867 C42.77395493 13.13468475 42.79473602 14.10848083 42.81614685 15.11178589 C42.88165356 18.22964264 42.94053255 21.34758521 42.99926758 24.46557617 C43.04245173 26.57626221 43.08606598 28.6869395 43.13012695 30.79760742 C43.23733605 35.97850568 43.33910035 41.15948974 43.43676758 46.34057617 C43.84668945 45.65350586 44.25661133 44.96643555 44.67895508 44.25854492 C45.2177832 43.35749023 45.75661133 42.45643555 46.31176758 41.52807617 C46.84543945 40.63475586 47.37911133 39.74143555 47.92895508 38.82104492 C49.0555985 36.96762893 50.23363369 35.145277 51.43676758 33.34057617 C52.09676758 33.34057617 52.75676758 33.34057617 53.43676758 33.34057617 C53.72551758 32.53620117 54.01426758 31.73182617 54.31176758 30.90307617 C55.43676758 28.34057617 55.43676758 28.34057617 57.43676758 27.34057617 C56.15358683 30.7656614 54.67104797 33.7871921 52.72192383 36.87963867 C52.20049805 37.7072168 51.67907227 38.53479492 51.1418457 39.38745117 C50.59979492 40.23823242 50.05774414 41.08901367 49.49926758 41.96557617 C48.96108398 42.8240918 48.42290039 43.68260742 47.8684082 44.56713867 C45.55543019 48.21770817 43.51348057 51.26386318 40.43676758 54.34057617 C40.10676758 37.18057617 39.77676758 20.02057617 39.43676758 2.34057617 C25.24676758 2.34057617 11.05676758 2.34057617 -3.56323242 2.34057617 C-3.56323242 43.26057617 -3.56323242 84.18057617 -3.56323242 126.34057617 C10.62676758 126.34057617 24.81676758 126.34057617 39.43676758 126.34057617 C41.08676758 123.37057617 42.73676758 120.40057617 44.43676758 117.34057617 C47.03695462 113.26505589 49.80077703 109.30855713 52.56176758 105.34057617 C53.27719727 104.29256836 53.99262695 103.24456055 54.72973633 102.16479492 C55.41938477 101.17092773 56.1090332 100.17706055 56.81958008 99.15307617 C57.4423584 98.25202148 58.06513672 97.3509668 58.70678711 96.42260742 C60.43676758 94.34057617 60.43676758 94.34057617 63.43676758 93.34057617 C63.43676758 104.56057617 63.43676758 115.78057617 63.43676758 127.34057617 C77.95676758 127.34057617 92.47676758 127.34057617 107.43676758 127.34057617 C107.43676758 125.03057617 107.43676758 122.72057617 107.43676758 120.34057617 C107.76676758 120.01057617 108.09676758 119.68057617 108.43676758 119.34057617 C108.53017192 117.71382839 108.55421929 116.08303566 108.55029297 114.45361328 C108.55021744 113.41260971 108.55014191 112.37160614 108.55006409 111.29905701 C108.5449028 110.16678177 108.53974152 109.03450653 108.53442383 107.86791992 C108.53300888 106.71514053 108.53159393 105.56236115 108.53013611 104.37464905 C108.52451763 100.67576554 108.51196199 96.97694153 108.49926758 93.27807617 C108.49425496 90.777426 108.48969164 88.27677489 108.4855957 85.77612305 C108.4745422 79.63092029 108.4577861 73.48575248 108.43676758 67.34057617 C107.77676758 67.34057617 107.11676758 67.34057617 106.43676758 67.34057617 C106.43676758 50.84057617 106.43676758 34.34057617 106.43676758 17.34057617 C92.24676758 17.34057617 78.05676758 17.34057617 63.43676758 17.34057617 C62.77676758 18.99057617 62.11676758 20.64057617 61.43676758 22.34057617 C60.44676758 21.35057617 60.44676758 21.35057617 59.43676758 20.34057617 C59.76676758 19.68057617 60.09676758 19.02057617 60.43676758 18.34057617 C61.09676758 18.34057617 61.75676758 18.34057617 62.43676758 18.34057617 C63.09676758 17.02057617 63.75676758 15.70057617 64.43676758 14.34057617 C70.50566933 14.26648641 76.57430855 14.21200258 82.64355469 14.17578125 C84.70870549 14.16068346 86.77382418 14.14020343 88.83886719 14.11425781 C91.80517496 14.07791823 94.77105929 14.06085987 97.73754883 14.04760742 C98.66263748 14.03212357 99.58772614 14.01663971 100.54084778 14.00068665 C101.40151352 14.00046005 102.26217926 14.00023346 103.14892578 14 C103.90615433 13.99333817 104.66338287 13.98667633 105.44355774 13.97981262 C108.0377336 14.44934878 108.89806476 15.21989937 110.43676758 17.34057617 C110.835495 19.25785828 110.835495 19.25785828 110.86914062 21.44482422 C110.88893478 22.26544846 110.90872894 23.08607269 110.92912292 23.93156433 C110.93551285 24.81290543 110.94190277 25.69424652 110.94848633 26.60229492 C110.96643753 27.50808792 110.98438873 28.41388092 111.00288391 29.34712219 C111.05707417 32.24072613 111.09091044 35.13416432 111.12426758 38.02807617 C111.15743297 39.98968782 111.1919219 41.95127758 111.2277832 43.9128418 C111.31280564 48.72196714 111.37957517 53.53104259 111.43676758 58.34057617 C114.49396812 57.69195091 114.49396812 57.69195091 115.43676758 55.59057617 C115.76676758 54.84807617 116.09676758 54.10557617 116.43676758 53.34057617 C118.6194605 49.57047022 120.8885034 45.8752652 123.43676758 42.34057617 C124.09676758 42.34057617 124.75676758 42.34057617 125.43676758 42.34057617 C125.62239258 41.41245117 125.62239258 41.41245117 125.81176758 40.46557617 C126.43676758 38.34057617 126.43676758 38.34057617 128.43676758 36.34057617 C130.27175903 36.10006714 130.27175903 36.10006714 132.51928711 36.11352539 C133.78036789 36.11375198 133.78036789 36.11375198 135.06692505 36.11398315 C136.42948929 36.12946701 136.42948929 36.12946701 137.81958008 36.14526367 C139.21368607 36.14950851 139.21368607 36.14950851 140.63595581 36.15383911 C143.61135608 36.16505548 146.58645793 36.19016257 149.56176758 36.21557617 C151.57608615 36.22560409 153.59040944 36.23473027 155.60473633 36.24291992 C160.54886214 36.26499957 165.49276423 36.29953924 170.43676758 36.34057617 C170.43676758 37.00057617 170.43676758 37.66057617 170.43676758 38.34057617 C171.75676758 38.67057617 173.07676758 39.00057617 174.43676758 39.34057617 C174.50620823 50.5017314 174.55954865 61.66283542 174.59220409 72.82416248 C174.60787527 78.00655039 174.62914005 83.18879076 174.66308594 88.37109375 C174.69562757 93.37017458 174.71360965 98.3691133 174.72139931 103.36829185 C174.72695217 105.27772955 174.73779525 107.18715927 174.75395775 109.09653664 C174.77566304 111.76635309 174.77873741 114.43557859 174.77734375 117.10546875 C174.78812958 117.89884644 174.79891541 118.69222412 174.81002808 119.50964355 C174.78008016 124.79440945 174.78008016 124.79440945 173.18623352 127.33001709 C171.01318376 128.58525454 169.61244958 128.72693946 167.10473633 128.74462891 C165.7982312 128.76365517 165.7982312 128.76365517 164.46533203 128.7830658 C163.52778076 128.78013016 162.59022949 128.77719452 161.62426758 128.77416992 C160.65900146 128.77941177 159.69373535 128.78465363 158.69921875 128.79005432 C156.65829429 128.79647809 154.61733283 128.79513294 152.57641602 128.78662109 C149.44846934 128.77810802 146.32234638 128.80687282 143.19458008 128.83862305 C141.21280979 128.84023501 139.23103627 128.83965763 137.24926758 128.83666992 C136.31171631 128.8479039 135.37416504 128.85913788 134.40820312 128.87071228 C127.99407219 128.80163029 127.99407219 128.80163029 125.34179688 126.60742188 C124.33136932 124.07658297 124.09146251 122.29643988 124.14379883 119.57495117 C124.1534668 118.68549805 124.16313477 117.79604492 124.1730957 116.87963867 C124.19823242 115.95924805 124.22336914 115.03885742 124.24926758 114.09057617 C124.26280273 113.1547168 124.27633789 112.21885742 124.2902832 111.25463867 C124.32556804 108.9493629 124.37486476 106.64526557 124.43676758 104.34057617 C123.77676758 104.34057617 123.11676758 104.34057617 122.43676758 104.34057617 C122.34266602 104.87682617 122.24856445 105.41307617 122.15161133 105.96557617 C121.21543794 109.07592272 119.67169285 111.55899568 117.99926758 114.34057617 C116.02983563 117.62981533 114.09180921 120.88079066 112.43676758 124.34057617 C111.77676758 124.34057617 111.11676758 124.34057617 110.43676758 124.34057617 C110.31301758 124.95932617 110.18926758 125.57807617 110.06176758 126.21557617 C109.43676758 128.34057617 109.43676758 128.34057617 107.43676758 130.34057617 C105.58399963 130.60800171 105.58399963 130.60800171 103.31005859 130.63110352 C102.4590004 130.64386322 101.6079422 130.65662292 100.73109436 130.66976929 C99.3498362 130.67310776 99.3498362 130.67310776 97.94067383 130.67651367 C96.5239463 130.68649887 96.5239463 130.68649887 95.07859802 130.69668579 C93.07878572 130.70682198 91.07893953 130.71150251 89.07910156 130.71118164 C86.01481554 130.71555399 82.95197034 130.75186094 79.88793945 130.78979492 C77.94718918 130.79566297 76.00643206 130.79963244 74.06567383 130.80151367 C73.14685928 130.8158847 72.22804474 130.83025574 71.28138733 130.84506226 C65.01335017 130.79991078 65.01335017 130.79991078 62.36694336 128.69165039 C61.21219273 125.77294998 61.00202984 123.40327638 60.92504883 120.26245117 C60.88959961 119.10229492 60.85415039 117.94213867 60.81762695 116.74682617 C60.79506836 115.54026367 60.77250977 114.33370117 60.74926758 113.09057617 C60.71510742 111.86854492 60.68094727 110.64651367 60.64575195 109.38745117 C60.56329596 106.37191771 60.49413556 103.35667423 60.43676758 100.34057617 C59.49704102 101.74823242 59.49704102 101.74823242 58.53833008 103.18432617 C57.71316638 104.403318 56.88762605 105.62205494 56.06176758 106.84057617 C55.44301758 107.77063477 55.44301758 107.77063477 54.81176758 108.71948242 C53.7377709 110.29583238 52.59188225 111.82266375 51.43676758 113.34057617 C50.77676758 113.34057617 50.11676758 113.34057617 49.43676758 113.34057617 C49.34137695 113.88456055 49.24598633 114.42854492 49.14770508 114.98901367 C48.23611183 118.00428364 46.75619606 120.3131164 45.06176758 122.96557617 C44.15297852 124.40803711 44.15297852 124.40803711 43.22583008 125.87963867 C41.43676758 128.34057617 41.43676758 128.34057617 38.43676758 130.34057617 C35.46155563 130.57328985 32.58243197 130.6926744 29.60473633 130.71166992 C28.73536942 130.72069839 27.8660025 130.72972687 26.97029114 130.73902893 C25.13029424 130.75353626 23.29024569 130.76241937 21.45019531 130.76611328 C18.64469591 130.77798969 15.84141076 130.82715106 13.03637695 130.87768555 C11.24667412 130.88715244 9.4569578 130.8943862 7.66723633 130.89916992 C6.83266403 130.91870224 5.99809174 130.93823456 5.13822937 130.95835876 C4.34753555 130.95228104 3.55684174 130.94620331 2.7421875 130.93994141 C2.05396408 130.94501205 1.36574066 130.9500827 0.65666199 130.95530701 C-2.96176491 129.95329602 -5.46758998 128.41742494 -7.56323242 125.34057617 C-8.44978243 121.43893516 -8.35209762 117.60768556 -8.29199219 113.62133789 C-8.29768723 112.43549103 -8.30338226 111.24964417 -8.30924988 110.02786255 C-8.31844884 106.7836962 -8.30088225 103.54104711 -8.27039075 100.29705191 C-8.24399321 96.90053369 -8.2493226 93.50405228 -8.25047302 90.10745239 C-8.24766606 84.40614063 -8.22165224 78.7053088 -8.18066406 73.00415039 C-8.1334448 66.41191103 -8.11767142 59.82019651 -8.11987072 53.22780025 C-8.12189648 46.20754433 -8.10108131 39.18749081 -8.07353091 32.16729593 C-8.06713616 30.14447035 -8.06500731 28.1216774 -8.06381416 26.09884262 C-8.05733123 22.33263363 -8.03111759 18.56709176 -7.99902344 14.80102539 C-8.000383 13.67887634 -8.00174255 12.55672729 -8.00314331 11.40057373 C-7.99034836 10.37714874 -7.97755341 9.35372375 -7.96437073 8.29928589 C-7.95934319 7.40887541 -7.95431566 6.51846493 -7.94913578 5.60107231 C-7.14672571 0.90081557 -4.39496954 -0.03612304 0 0 Z M128.43676758 40.34057617 C128.43676758 68.39057617 128.43676758 96.44057617 128.43676758 125.34057617 C142.62676758 125.34057617 156.81676758 125.34057617 171.43676758 125.34057617 C171.43676758 97.29057617 171.43676758 69.24057617 171.43676758 40.34057617 C157.24676758 40.34057617 143.05676758 40.34057617 128.43676758 40.34057617 Z " fill="#1A7673" transform="translate(24.563232421875,5.659423828125)"/>
<path d="M0 0 C0 0.66 0 1.32 0 2 C0.99 2 1.98 2 3 2 C5.80255323 4.9063515 6 5.78825048 6 10 C1.60774228 12.37181917 1.60774228 12.37181917 -1 13 C-3.03273074 12.06833174 -5.03384339 11.0650015 -7 10 C-10.74360341 10.05728998 -10.74360341 10.05728998 -14 11 C-14.33 11.66 -14.66 12.32 -15 13 C-15.66 13 -16.32 13 -17 13 C-17 15.97 -17 18.94 -17 22 C-16.34 22 -15.68 22 -15 22 C-14.5875 22.495 -14.175 22.99 -13.75 23.5 C-11.23177499 25.65847858 -9.20624415 25.21374961 -6 25 C-6.94875 24.71125 -7.8975 24.4225 -8.875 24.125 C-12 23 -12 23 -14 21 C-13.44444444 16.44444444 -13.44444444 16.44444444 -12 15 C-10.59651265 14.90139869 -9.18819523 14.86921063 -7.78125 14.8671875 C-6.50701172 14.86525391 -6.50701172 14.86525391 -5.20703125 14.86328125 C-3.86705078 14.86908203 -3.86705078 14.86908203 -2.5 14.875 C-1.60667969 14.87113281 -0.71335937 14.86726563 0.20703125 14.86328125 C1.05652344 14.86457031 1.90601562 14.86585938 2.78125 14.8671875 C3.56564453 14.86831543 4.35003906 14.86944336 5.15820312 14.87060547 C7 15 7 15 8 16 C8.495 14.515 8.495 14.515 9 13 C11.5625 11.8125 11.5625 11.8125 14 11 C14 10.34 14 9.68 14 9 C16.12437212 8.80551523 18.24953191 8.61961711 20.375 8.4375 C21.55835938 8.33308594 22.74171875 8.22867188 23.9609375 8.12109375 C27 8 27 8 29 9 C29 9.66 29 10.32 29 11 C29.61875 11.2475 30.2375 11.495 30.875 11.75 C33.35068687 13.20628639 33.95125002 14.37812506 35 17 C35.66 14.36 36.32 11.72 37 9 C44.25576038 7.4724715 52.13105832 6.8168319 59 10 C61.30270622 11.74115407 61.93781264 12.55229556 62.34057617 15.4519043 C62.32486572 16.39976807 62.30915527 17.34763184 62.29296875 18.32421875 C62.28330078 19.35224609 62.27363281 20.38027344 62.26367188 21.43945312 C62.23853516 22.51130859 62.21339844 23.58316406 62.1875 24.6875 C62.16719727 26.31268555 62.16719727 26.31268555 62.14648438 27.97070312 C62.11110643 30.64763405 62.06174189 33.32356838 62 36 C55.65042468 37.31783639 55.65042468 37.31783639 53.10546875 36.07421875 C51.36830482 32.81473448 51.42297626 29.42665177 51.3125 25.8125 C51.27833984 25.06291016 51.24417969 24.31332031 51.20898438 23.54101562 C51.12665706 21.69453162 51.06164719 19.84729006 51 18 C49.68 18.33 48.36 18.66 47 19 C46.96261719 20.13179687 46.92523438 21.26359375 46.88671875 22.4296875 C46.82106918 23.91149205 46.75462149 25.39326139 46.6875 26.875 C46.66494141 27.62136719 46.64238281 28.36773437 46.61914062 29.13671875 C46.52188055 31.099604 46.26957706 33.05328322 46 35 C43 37 43 37 39.8125 36.625 C38.884375 36.41875 37.95625 36.2125 37 36 C36.34 32.7 35.68 29.4 35 26 C34.01 26.66 33.02 27.32 32 28 C32.226875 28.763125 32.45375 29.52625 32.6875 30.3125 C33 33 33 33 31.8203125 34.62109375 C27.64056213 37.7872995 21.34614843 37.16246619 16.375 36.5625 C15.59125 36.376875 14.8075 36.19125 14 36 C14 35.34 14 34.68 14 34 C13.38125 33.731875 12.7625 33.46375 12.125 33.1875 C10 32 10 32 8 29 C7.54625 29.495 7.0925 29.99 6.625 30.5 C5 32 5 32 3 32 C3 32.66 3 33.32 3 34 C-2.23270094 37.48846729 -8.53610161 37 -14.6875 37 C-19.5068415 35.54510445 -22.78980657 32.85223212 -26 29 C-27 25.5625 -27 25.5625 -27 23 C-27.66 23 -28.32 23 -29 23 C-29.74926071 19.33694766 -30.2380014 16.57644848 -29 13 C-28.34 13 -27.68 13 -27 13 C-26.67 11.02 -26.34 9.04 -26 7 C-25.34 7 -24.68 7 -24 7 C-23.79375 6.4225 -23.5875 5.845 -23.375 5.25 C-21.10283239 1.53190755 -17.75028598 -0.38503465 -13.6875 -1.8125 C-9.17853158 -2.12707919 -4.09418752 -2.04709376 0 0 Z M18 18 C18 18.33 18 18.66 18 19 C20.31 19 22.62 19 25 19 C25 18.67 25 18.34 25 18 C22.69 18 20.38 18 18 18 Z M21 27 C25 28 25 28 25 28 Z " fill="#D8E3E3" transform="translate(47,148)"/>
<path d="M0 0 C0.85758911 -0.00315216 1.71517822 -0.00630432 2.59875488 -0.009552 C3.53102905 -0.00752777 4.46330322 -0.00550354 5.42382812 -0.00341797 C6.84979309 -0.00485306 6.84979309 -0.00485306 8.30456543 -0.00631714 C10.31876695 -0.00699904 12.33297065 -0.00514409 14.34716797 -0.00097656 C17.44178167 0.00437155 20.53625022 -0.00092124 23.63085938 -0.00732422 C25.58268261 -0.00666344 27.53450576 -0.00538228 29.48632812 -0.00341797 C30.88473938 -0.00645432 30.88473938 -0.00645432 32.31140137 -0.009552 C33.16899048 -0.00639984 34.02657959 -0.00324768 34.91015625 0 C35.66880981 0.00079559 36.42746338 0.00159119 37.20910645 0.00241089 C38.95507812 0.12939453 38.95507812 0.12939453 39.95507812 1.12939453 C40.07780661 2.72453346 40.13288856 4.32494385 40.16040039 5.92456055 C40.19031822 7.45603477 40.19031822 7.45603477 40.22084045 9.01844788 C40.23755295 10.12884933 40.25426544 11.23925079 40.27148438 12.38330078 C40.29226547 13.51388412 40.31304657 14.64446747 40.3344574 15.80931091 C40.40007609 19.43677438 40.4588949 23.06431286 40.51757812 26.69189453 C40.56075164 29.14437639 40.60436553 31.59685053 40.6484375 34.04931641 C40.75576996 40.0759288 40.85751302 46.10261654 40.95507812 52.12939453 C41.26735352 51.61554199 41.57962891 51.10168945 41.90136719 50.57226562 C43.33462432 48.21550713 44.76983596 45.85994465 46.20507812 43.50439453 C46.69621094 42.69615234 47.18734375 41.88791016 47.69335938 41.05517578 C49.8252265 37.5589137 51.9580085 34.08686424 54.28320312 30.71533203 C56.11619562 28.24313021 56.11619562 28.24313021 56.45507812 25.37939453 C56.62007812 24.63689453 56.78507812 23.89439453 56.95507812 23.12939453 C58.95507813 22.00439453 58.95507813 22.00439453 60.95507812 21.12939453 C61.45007813 19.64439453 61.45007813 19.64439453 61.95507812 18.12939453 C62.28507812 18.12939453 62.61507812 18.12939453 62.95507812 18.12939453 C63.08866514 26.89523711 63.21916746 35.66111959 63.34622955 44.42705917 C63.40538227 48.50201343 63.46541393 52.57694982 63.52783203 56.65185547 C63.88173036 79.81274312 64.02320782 102.96582287 63.95507812 126.12939453 C63.62507813 126.12939453 63.29507813 126.12939453 62.95507812 126.12939453 C62.95507812 114.90939453 62.95507812 103.68939453 62.95507812 92.12939453 C59.26317869 95.82129397 56.65774806 98.75500077 53.81835938 102.98095703 C53.4528447 103.5216684 53.08733002 104.06237976 52.71073914 104.61947632 C51.55777686 106.32765428 50.41258232 108.04087486 49.26757812 109.75439453 C48.48879039 110.91098752 47.70949766 112.06724064 46.9296875 113.22314453 C44.25998889 117.18423074 41.60475013 121.15488652 38.95507812 125.12939453 C38.95507812 84.53939453 38.95507812 43.94939453 38.95507812 2.12939453 C24.76507813 2.12939453 10.57507812 2.12939453 -4.04492188 2.12939453 C-4.04492188 42.71939453 -4.04492188 83.30939453 -4.04492188 125.12939453 C-4.37492187 125.12939453 -4.70492188 125.12939453 -5.04492188 125.12939453 C-5.06825097 108.97907533 -5.0859011 92.82876157 -5.09673405 76.6784296 C-5.10189698 69.18006389 -5.10893963 61.68170862 -5.12036133 54.18334961 C-5.13030824 47.65008949 -5.13677532 41.11683694 -5.13901037 34.58356947 C-5.14031747 31.12217646 -5.14340324 27.66080511 -5.15065193 24.19941902 C-5.15866594 20.34151927 -5.15891301 16.48364096 -5.15844727 12.62573242 C-5.16204254 11.46983612 -5.16563782 10.31393982 -5.16934204 9.12301636 C-5.16796738 8.07828659 -5.16659271 7.03355682 -5.16517639 5.95716858 C-5.16609818 5.04367173 -5.16701998 4.13017488 -5.1679697 3.18899632 C-4.94742901 -0.50246253 -3.25586378 0.0034144 0 0 Z " fill="#197773" transform="translate(25.044921875,6.87060546875)"/>
<path d="M0 0 C3.29714793 0.32971479 4.6226839 0.6226839 7 3 C7.25 6 7.25 6 7 9 C6.34 9.66 5.68 10.32 5 11 C5.66 11.33 6.32 11.66 7 12 C8.54943009 17.94172755 8.04301266 24.41776742 7.75 30.5 C7.72381592 31.20648682 7.69763184 31.91297363 7.6706543 32.64086914 C7.546875 34.65625 7.546875 34.65625 7 38 C4 40 4 40 1 39.875 C-2.39325408 38.88530089 -3.25957561 37.99739756 -5 35 C-5.474375 35.639375 -5.94875 36.27875 -6.4375 36.9375 C-11.00356085 40.61262215 -16.22406274 40.1145766 -21.875 39.75 C-25 39 -25 39 -27 37.8125 C-28.52262484 35.05274248 -27.72429919 32.96304212 -27 30 C-26.01 29.67 -25.02 29.34 -24 29 C-24.99 28.01 -25.98 27.02 -27 26 C-27.28875 26.639375 -27.5775 27.27875 -27.875 27.9375 C-29 30 -29 30 -31 31 C-30.34 32.32 -29.68 33.64 -29 35 C-30.78226078 37.51136746 -32.2504053 38.82800396 -35.28125 39.5234375 C-40.02967488 40.05262943 -44.31145145 40.11044571 -49 39 C-49 38.34 -49 37.68 -49 37 C-49.99 36.67 -50.98 36.34 -52 36 C-55.59623724 31.89001459 -56.69571611 28.58548092 -56.4609375 23.2578125 C-55.64057327 19.23941824 -53.75362581 17.00977704 -51 14 C-50.01 14 -49.02 14 -48 14 C-48 13.34 -48 12.68 -48 12 C-37.07266339 10.39662684 -37.07266339 10.39662684 -33 12.6875 C-32.01 13.8321875 -32.01 13.8321875 -31 15 C-30.236875 15.7425 -29.47375 16.485 -28.6875 17.25 C-28.130625 17.8275 -27.57375 18.405 -27 19 C-26.87625 18.401875 -26.7525 17.80375 -26.625 17.1875 C-26 15 -26 15 -24 12 C-21.1015625 11.41796875 -21.1015625 11.41796875 -17.625 11.1875 C-16.48289063 11.09855469 -15.34078125 11.00960937 -14.1640625 10.91796875 C-9.87861675 11.0290729 -7.98827992 12.01172008 -5 15 C-5.36276645 17.82957829 -6.09694764 20.29084291 -7 23 C-6.34 23.66 -5.68 24.32 -5 25 C-4.96261719 24.15695313 -4.92523438 23.31390625 -4.88671875 22.4453125 C-4.82097656 21.34960938 -4.75523437 20.25390625 -4.6875 19.125 C-4.60048828 17.48917969 -4.60048828 17.48917969 -4.51171875 15.8203125 C-4.34285156 14.88960937 -4.17398438 13.95890625 -4 13 C-3.01 12.34 -2.02 11.68 -1 11 C-2.32 9.68 -3.64 8.36 -5 7 C-3.47793991 4.37098712 -2.15634036 2.15634036 0 0 Z M-15 19 C-15.33 19.66 -15.66 20.32 -16 21 C-14.68 21.33 -13.36 21.66 -12 22 C-12 21.34 -12 20.68 -12 20 C-12.99 19.67 -13.98 19.34 -15 19 Z M-44 21 C-44 21.33 -44 21.66 -44 22 C-42.02 22 -40.04 22 -38 22 C-38 21.67 -38 21.34 -38 21 C-39.98 21 -41.96 21 -44 21 Z M-42 30 C-42 30.33 -42 30.66 -42 31 C-40.35 31 -38.7 31 -37 31 C-37 30.67 -37 30.34 -37 30 C-38.65 30 -40.3 30 -42 30 Z M-18 30 C-16.515 30.99 -16.515 30.99 -15 32 C-14.67 31.34 -14.34 30.68 -14 30 C-15.32 30 -16.64 30 -18 30 Z " fill="#D3DEDE" transform="translate(166,145)"/>
<path d="M0 0 C0.920728 0.00022659 1.84145599 0.00045319 2.79008484 0.00068665 C3.78079483 0.0161705 4.77150482 0.03165436 5.79223633 0.04760742 C6.80900955 0.05185226 7.82578278 0.05609711 8.87336731 0.06047058 C12.1239357 0.0772762 15.37388628 0.11493235 18.62426758 0.15307617 C20.82673259 0.16812055 23.02920731 0.18180938 25.23168945 0.1940918 C30.6335933 0.22718581 36.0351363 0.27740394 41.43676758 0.34057617 C42.58968442 2.64640986 42.59074096 4.03924504 42.64208984 6.60668945 C42.67200768 7.92783249 42.67200768 7.92783249 42.70252991 9.27566528 C42.7192424 10.227789 42.7359549 11.17991272 42.75317383 12.16088867 C42.77395493 13.13468475 42.79473602 14.10848083 42.81614685 15.11178589 C42.88165356 18.22964264 42.94053255 21.34758521 42.99926758 24.46557617 C43.04245173 26.57626221 43.08606598 28.6869395 43.13012695 30.79760742 C43.23733605 35.97850568 43.33910035 41.15948974 43.43676758 46.34057617 C43.84668945 45.65350586 44.25661133 44.96643555 44.67895508 44.25854492 C45.2177832 43.35749023 45.75661133 42.45643555 46.31176758 41.52807617 C46.84543945 40.63475586 47.37911133 39.74143555 47.92895508 38.82104492 C49.0555985 36.96762893 50.23363369 35.145277 51.43676758 33.34057617 C52.09676758 33.34057617 52.75676758 33.34057617 53.43676758 33.34057617 C53.72551758 32.53620117 54.01426758 31.73182617 54.31176758 30.90307617 C55.43676758 28.34057617 55.43676758 28.34057617 57.43676758 27.34057617 C56.15358683 30.7656614 54.67104797 33.7871921 52.72192383 36.87963867 C52.20049805 37.7072168 51.67907227 38.53479492 51.1418457 39.38745117 C50.59979492 40.23823242 50.05774414 41.08901367 49.49926758 41.96557617 C48.96108398 42.8240918 48.42290039 43.68260742 47.8684082 44.56713867 C45.55543019 48.21770817 43.51348057 51.26386318 40.43676758 54.34057617 C40.10676758 37.18057617 39.77676758 20.02057617 39.43676758 2.34057617 C25.24676758 2.34057617 11.05676758 2.34057617 -3.56323242 2.34057617 C-3.56323242 43.26057617 -3.56323242 84.18057617 -3.56323242 126.34057617 C10.62676758 126.34057617 24.81676758 126.34057617 39.43676758 126.34057617 C41.08676758 123.37057617 42.73676758 120.40057617 44.43676758 117.34057617 C47.03695462 113.26505589 49.80077703 109.30855713 52.56176758 105.34057617 C53.27719727 104.29256836 53.99262695 103.24456055 54.72973633 102.16479492 C55.41938477 101.17092773 56.1090332 100.17706055 56.81958008 99.15307617 C57.4423584 98.25202148 58.06513672 97.3509668 58.70678711 96.42260742 C60.43676758 94.34057617 60.43676758 94.34057617 63.43676758 93.34057617 C63.43676758 104.56057617 63.43676758 115.78057617 63.43676758 127.34057617 C69.55187284 127.56639626 75.62781394 127.74125528 81.74121094 127.79223633 C83.81444905 127.82422426 85.88746119 127.88468037 87.95898438 127.97485352 C99.21786594 128.88339388 99.21786594 128.88339388 109.2149353 124.82592773 C112.21002259 121.01104117 114.02201456 116.76001076 115.70101929 112.23925781 C116.6157851 109.87860121 117.82724084 107.82880426 119.21411133 105.71557617 C119.76615234 104.84545898 119.76615234 104.84545898 120.3293457 103.95776367 C120.67416992 103.4240918 121.01899414 102.89041992 121.37426758 102.34057617 C121.93210938 101.44725586 121.93210938 101.44725586 122.5012207 100.53588867 C123.42300719 99.09942428 124.42232922 97.71317775 125.43676758 96.34057617 C126.09676758 96.34057617 126.75676758 96.34057617 127.43676758 96.34057617 C127.43676758 106.24057617 127.43676758 116.14057617 127.43676758 126.34057617 C141.95676758 126.34057617 156.47676758 126.34057617 171.43676758 126.34057617 C171.43676758 97.63057617 171.43676758 68.92057617 171.43676758 39.34057617 C156.91676758 39.34057617 142.39676758 39.34057617 127.43676758 39.34057617 C127.10676758 40.33057617 126.77676758 41.32057617 126.43676758 42.34057617 C126.10676758 41.35057617 125.77676758 40.36057617 125.43676758 39.34057617 C127.02518394 37.44292412 127.91630164 36.43660764 130.39201355 35.97981262 C131.1314772 35.98647446 131.87094086 35.99313629 132.6328125 36 C133.89377998 36.00033989 133.89377998 36.00033989 135.18022156 36.00068665 C136.08343643 36.0161705 136.98665131 36.03165436 137.91723633 36.04760742 C138.84522537 36.05185226 139.77321442 36.05609711 140.72932434 36.06047058 C143.69460001 36.07726955 146.65919718 36.11492402 149.62426758 36.15307617 C151.63402339 36.16812143 153.64378985 36.18181011 155.65356445 36.1940918 C160.58156044 36.22717709 165.50904896 36.27896784 170.43676758 36.34057617 C170.43676758 37.00057617 170.43676758 37.66057617 170.43676758 38.34057617 C171.75676758 38.67057617 173.07676758 39.00057617 174.43676758 39.34057617 C174.50620823 50.5017314 174.55954865 61.66283542 174.59220409 72.82416248 C174.60787527 78.00655039 174.62914005 83.18879076 174.66308594 88.37109375 C174.69562757 93.37017458 174.71360965 98.3691133 174.72139931 103.36829185 C174.72695217 105.27772955 174.73779525 107.18715927 174.75395775 109.09653664 C174.77566304 111.76635309 174.77873741 114.43557859 174.77734375 117.10546875 C174.78812958 117.89884644 174.79891541 118.69222412 174.81002808 119.50964355 C174.78008016 124.79440945 174.78008016 124.79440945 173.18623352 127.33001709 C171.01318376 128.58525454 169.61244958 128.72693946 167.10473633 128.74462891 C165.7982312 128.76365517 165.7982312 128.76365517 164.46533203 128.7830658 C163.52778076 128.78013016 162.59022949 128.77719452 161.62426758 128.77416992 C160.65900146 128.77941177 159.69373535 128.78465363 158.69921875 128.79005432 C156.65829429 128.79647809 154.61733283 128.79513294 152.57641602 128.78662109 C149.44846934 128.77810802 146.32234638 128.80687282 143.19458008 128.83862305 C141.21280979 128.84023501 139.23103627 128.83965763 137.24926758 128.83666992 C136.31171631 128.8479039 135.37416504 128.85913788 134.40820312 128.87071228 C127.99407219 128.80163029 127.99407219 128.80163029 125.34179688 126.60742188 C124.33136932 124.07658297 124.09146251 122.29643988 124.14379883 119.57495117 C124.1534668 118.68549805 124.16313477 117.79604492 124.1730957 116.87963867 C124.19823242 115.95924805 124.22336914 115.03885742 124.24926758 114.09057617 C124.26280273 113.1547168 124.27633789 112.21885742 124.2902832 111.25463867 C124.32556804 108.9493629 124.37486476 106.64526557 124.43676758 104.34057617 C123.77676758 104.34057617 123.11676758 104.34057617 122.43676758 104.34057617 C122.34266602 104.87682617 122.24856445 105.41307617 122.15161133 105.96557617 C121.21543794 109.07592272 119.67169285 111.55899568 117.99926758 114.34057617 C116.02983563 117.62981533 114.09180921 120.88079066 112.43676758 124.34057617 C111.77676758 124.34057617 111.11676758 124.34057617 110.43676758 124.34057617 C110.31301758 124.95932617 110.18926758 125.57807617 110.06176758 126.21557617 C109.43676758 128.34057617 109.43676758 128.34057617 107.43676758 130.34057617 C105.58399963 130.60800171 105.58399963 130.60800171 103.31005859 130.63110352 C102.4590004 130.64386322 101.6079422 130.65662292 100.73109436 130.66976929 C99.3498362 130.67310776 99.3498362 130.67310776 97.94067383 130.67651367 C96.5239463 130.68649887 96.5239463 130.68649887 95.07859802 130.69668579 C93.07878572 130.70682198 91.07893953 130.71150251 89.07910156 130.71118164 C86.01481554 130.71555399 82.95197034 130.75186094 79.88793945 130.78979492 C77.94718918 130.79566297 76.00643206 130.79963244 74.06567383 130.80151367 C73.14685928 130.8158847 72.22804474 130.83025574 71.28138733 130.84506226 C65.01335017 130.79991078 65.01335017 130.79991078 62.36694336 128.69165039 C61.21219273 125.77294998 61.00202984 123.40327638 60.92504883 120.26245117 C60.88959961 119.10229492 60.85415039 117.94213867 60.81762695 116.74682617 C60.79506836 115.54026367 60.77250977 114.33370117 60.74926758 113.09057617 C60.71510742 111.86854492 60.68094727 110.64651367 60.64575195 109.38745117 C60.56329596 106.37191771 60.49413556 103.35667423 60.43676758 100.34057617 C59.49704102 101.74823242 59.49704102 101.74823242 58.53833008 103.18432617 C57.71316638 104.403318 56.88762605 105.62205494 56.06176758 106.84057617 C55.44301758 107.77063477 55.44301758 107.77063477 54.81176758 108.71948242 C53.7377709 110.29583238 52.59188225 111.82266375 51.43676758 113.34057617 C50.77676758 113.34057617 50.11676758 113.34057617 49.43676758 113.34057617 C49.34137695 113.88456055 49.24598633 114.42854492 49.14770508 114.98901367 C48.23611183 118.00428364 46.75619606 120.3131164 45.06176758 122.96557617 C44.15297852 124.40803711 44.15297852 124.40803711 43.22583008 125.87963867 C41.43676758 128.34057617 41.43676758 128.34057617 38.43676758 130.34057617 C35.46155563 130.57328985 32.58243197 130.6926744 29.60473633 130.71166992 C28.73536942 130.72069839 27.8660025 130.72972687 26.97029114 130.73902893 C25.13029424 130.75353626 23.29024569 130.76241937 21.45019531 130.76611328 C18.64469591 130.77798969 15.84141076 130.82715106 13.03637695 130.87768555 C11.24667412 130.88715244 9.4569578 130.8943862 7.66723633 130.89916992 C6.83266403 130.91870224 5.99809174 130.93823456 5.13822937 130.95835876 C4.34753555 130.95228104 3.55684174 130.94620331 2.7421875 130.93994141 C2.05396408 130.94501205 1.36574066 130.9500827 0.65666199 130.95530701 C-2.96176491 129.95329602 -5.46758998 128.41742494 -7.56323242 125.34057617 C-8.44978243 121.43893516 -8.35209762 117.60768556 -8.29199219 113.62133789 C-8.29768723 112.43549103 -8.30338226 111.24964417 -8.30924988 110.02786255 C-8.31844884 106.7836962 -8.30088225 103.54104711 -8.27039075 100.29705191 C-8.24399321 96.90053369 -8.2493226 93.50405228 -8.25047302 90.10745239 C-8.24766606 84.40614063 -8.22165224 78.7053088 -8.18066406 73.00415039 C-8.1334448 66.41191103 -8.11767142 59.82019651 -8.11987072 53.22780025 C-8.12189648 46.20754433 -8.10108131 39.18749081 -8.07353091 32.16729593 C-8.06713616 30.14447035 -8.06500731 28.1216774 -8.06381416 26.09884262 C-8.05733123 22.33263363 -8.03111759 18.56709176 -7.99902344 14.80102539 C-8.000383 13.67887634 -8.00174255 12.55672729 -8.00314331 11.40057373 C-7.99034836 10.37714874 -7.97755341 9.35372375 -7.96437073 8.29928589 C-7.95934319 7.40887541 -7.95431566 6.51846493 -7.94913578 5.60107231 C-7.14672571 0.90081557 -4.39496954 -0.03612304 0 0 Z " fill="#E8EFEF" transform="translate(24.563232421875,5.659423828125)"/>
<path d="M0 0 C1.90625 1.296875 1.90625 1.296875 4.59375 3.984375 C4.59375 4.974375 4.59375 5.964375 4.59375 6.984375 C-2.03125 8.234375 -2.03125 8.234375 -5.40625 5.984375 C-10.91196489 5.44171871 -10.91196489 5.44171871 -15.90625 7.359375 C-18.26644335 11.48971336 -18.09494063 15.35068476 -17.40625 19.984375 C-16.41370443 23.30842272 -16.41370443 23.30842272 -13.40625 24.984375 C-9.37192093 25.38673495 -5.44563751 25.27018072 -1.40625 24.984375 C-1.40625 23.334375 -1.40625 21.684375 -1.40625 19.984375 C-4.37625 19.984375 -7.34625 19.984375 -10.40625 19.984375 C-10.40625 18.004375 -10.40625 16.024375 -10.40625 13.984375 C-5.12625 13.984375 0.15375 13.984375 5.59375 13.984375 C6.08203125 23.75 6.08203125 23.75 5.59375 26.984375 C1.27199448 31.24226221 -2.83064043 33.06521416 -8.84375 33.296875 C-14.15099164 33.16463476 -17.63193922 31.51225373 -21.65625 28.046875 C-25.94049576 22.99758536 -25.90720872 18.38203537 -25.40625 11.984375 C-24.17022357 7.4522781 -21.66526574 2.47684832 -17.66796875 -0.1640625 C-12.31137071 -2.1808818 -5.27647026 -2.2270816 0 0 Z " fill="#175D5D" transform="translate(46.40625,150.015625)"/>
<path d="M0 0 C0.920728 0.00022659 1.84145599 0.00045319 2.79008484 0.00068665 C3.78079483 0.0161705 4.77150482 0.03165436 5.79223633 0.04760742 C6.80900955 0.05185226 7.82578278 0.05609711 8.87336731 0.06047058 C12.1239357 0.0772762 15.37388628 0.11493235 18.62426758 0.15307617 C20.82673259 0.16812055 23.02920731 0.18180938 25.23168945 0.1940918 C30.6335933 0.22718581 36.0351363 0.27740394 41.43676758 0.34057617 C42.58968442 2.64640986 42.59074096 4.03924504 42.64208984 6.60668945 C42.67200768 7.92783249 42.67200768 7.92783249 42.70252991 9.27566528 C42.7192424 10.227789 42.7359549 11.17991272 42.75317383 12.16088867 C42.77395493 13.13468475 42.79473602 14.10848083 42.81614685 15.11178589 C42.88165356 18.22964264 42.94053255 21.34758521 42.99926758 24.46557617 C43.04245173 26.57626221 43.08606598 28.6869395 43.13012695 30.79760742 C43.23733605 35.97850568 43.33910035 41.15948974 43.43676758 46.34057617 C43.84668945 45.65350586 44.25661133 44.96643555 44.67895508 44.25854492 C45.2177832 43.35749023 45.75661133 42.45643555 46.31176758 41.52807617 C46.84543945 40.63475586 47.37911133 39.74143555 47.92895508 38.82104492 C49.0555985 36.96762893 50.23363369 35.145277 51.43676758 33.34057617 C52.09676758 33.34057617 52.75676758 33.34057617 53.43676758 33.34057617 C53.72551758 32.53620117 54.01426758 31.73182617 54.31176758 30.90307617 C55.43676758 28.34057617 55.43676758 28.34057617 57.43676758 27.34057617 C56.15358683 30.7656614 54.67104797 33.7871921 52.72192383 36.87963867 C52.20049805 37.7072168 51.67907227 38.53479492 51.1418457 39.38745117 C50.59979492 40.23823242 50.05774414 41.08901367 49.49926758 41.96557617 C48.96108398 42.8240918 48.42290039 43.68260742 47.8684082 44.56713867 C45.55543019 48.21770817 43.51348057 51.26386318 40.43676758 54.34057617 C40.10676758 37.18057617 39.77676758 20.02057617 39.43676758 2.34057617 C25.24676758 2.34057617 11.05676758 2.34057617 -3.56323242 2.34057617 C-3.56323242 43.59057617 -3.56323242 84.84057617 -3.56323242 127.34057617 C-4.88323242 126.68057617 -6.20323242 126.02057617 -7.56323242 125.34057617 C-7.63327356 109.48558846 -7.68619651 93.63064241 -7.71866894 77.77553844 C-7.73414635 70.41394572 -7.75525243 63.05244905 -7.78955078 55.69091797 C-7.81942655 49.2755654 -7.83880107 42.86028239 -7.84549791 36.44486219 C-7.8494133 33.04704353 -7.85863282 29.64942388 -7.88042259 26.25166893 C-7.90209389 22.4611146 -7.90520361 18.67097706 -7.90380859 14.88037109 C-7.91459442 13.75036682 -7.92538025 12.62036255 -7.93649292 11.45611572 C-7.93236893 10.42546494 -7.92824493 9.39481415 -7.92399597 8.33293152 C-7.92676135 7.43602695 -7.92952673 6.53912237 -7.93237591 5.61503887 C-7.16682455 0.89812506 -4.3971471 -0.03614094 0 0 Z " fill="#E4ECEC" transform="translate(24.563232421875,5.659423828125)"/>
<path d="M0 0 C3.48959775 -0.20794623 5.52602907 -0.0654618 8.47265625 1.875 C9.91015625 4.1875 9.91015625 4.1875 9.72265625 6.75 C9.11848958 8.5625 8.51432292 10.375 7.91015625 12.1875 C8.24015625 13.1775 8.57015625 14.1675 8.91015625 15.1875 C9.57015625 15.1875 10.23015625 15.1875 10.91015625 15.1875 C12.03515625 21.9375 12.03515625 21.9375 10.91015625 24.1875 C10.25015625 24.1875 9.59015625 24.1875 8.91015625 24.1875 C8.58015625 25.1775 8.25015625 26.1675 7.91015625 27.1875 C3.2465509 29.87260611 -2.0097118 29.99743873 -7.125 28.65234375 C-9.84441214 27.63047019 -11.72514697 26.85253531 -13.15234375 24.25 C-13.0755984 21.71740331 -12.47351373 20.29941733 -11.08984375 18.1875 C-10.42984375 17.8575 -9.76984375 17.5275 -9.08984375 17.1875 C-9.56421875 16.8575 -10.03859375 16.5275 -10.52734375 16.1875 C-12.89664026 13.15480047 -13.31632985 9.93547965 -13.08984375 6.1875 C-11.58984375 3.25 -11.58984375 3.25 -9.08984375 1.1875 C-6.01021293 0.41759229 -3.1430802 0.28199598 0 0 Z M-1.08984375 9.1875 C0.89015625 10.1775 0.89015625 10.1775 2.91015625 11.1875 C2.91015625 10.5275 2.91015625 9.8675 2.91015625 9.1875 C1.59015625 9.1875 0.27015625 9.1875 -1.08984375 9.1875 Z M-3.08984375 19.1875 C-1.60484375 20.1775 -1.60484375 20.1775 -0.08984375 21.1875 C0.24015625 20.5275 0.57015625 19.8675 0.91015625 19.1875 C-0.40984375 19.1875 -1.72984375 19.1875 -3.08984375 19.1875 Z " fill="#1A5F5F" transform="translate(187.08984375,155.8125)"/>
<path d="M0 0 C0 0.66 0 1.32 0 2 C0.99 2 1.98 2 3 2 C5.80255323 4.9063515 6 5.78825048 6 10 C1.60774228 12.37181917 1.60774228 12.37181917 -1 13 C-3.03273074 12.06833174 -5.03384339 11.0650015 -7 10 C-10.74360341 10.05728998 -10.74360341 10.05728998 -14 11 C-14.33 11.66 -14.66 12.32 -15 13 C-15.66 13 -16.32 13 -17 13 C-17 15.97 -17 18.94 -17 22 C-16.34 22 -15.68 22 -15 22 C-14.5875 22.495 -14.175 22.99 -13.75 23.5 C-11.23177499 25.65847858 -9.20624415 25.21374961 -6 25 C-6.94875 24.71125 -7.8975 24.4225 -8.875 24.125 C-12 23 -12 23 -14 21 C-13.44444444 16.44444444 -13.44444444 16.44444444 -12 15 C-8.8617655 14.75033433 -5.70950387 14.81478209 -2.5625 14.8125 C-1.67755859 14.80025391 -0.79261719 14.78800781 0.11914062 14.77539062 C0.96541016 14.77345703 1.81167969 14.77152344 2.68359375 14.76953125 C3.46275146 14.76542236 4.24190918 14.76131348 5.04467773 14.75708008 C7 15 7 15 9 17 C9.67462154 21.94199502 10.03227356 26.5204079 7.125 30.6875 C5 32 5 32 3 32 C3 32.66 3 33.32 3 34 C-2.23270094 37.48846729 -8.53610161 37 -14.6875 37 C-19.5068415 35.54510445 -22.78980657 32.85223212 -26 29 C-27 25.5625 -27 25.5625 -27 23 C-27.66 23 -28.32 23 -29 23 C-29.74926071 19.33694766 -30.2380014 16.57644848 -29 13 C-28.34 13 -27.68 13 -27 13 C-26.67 11.02 -26.34 9.04 -26 7 C-25.34 7 -24.68 7 -24 7 C-23.79375 6.4225 -23.5875 5.845 -23.375 5.25 C-21.10283239 1.53190755 -17.75028598 -0.38503465 -13.6875 -1.8125 C-9.17853158 -2.12707919 -4.09418752 -2.04709376 0 0 Z M-22 5 C-26.20654668 10.80213335 -26.79869508 16.98923205 -26 24 C-23.78757561 28.42484878 -21.05200384 31.19476657 -17 34 C-11.29900468 35.90033177 -5.99144571 35.78993868 -0.5625 33.125 C1.70699646 31.88709284 3.15094567 30.84905433 5 29 C5.24360073 25.87185486 5.24360073 25.87185486 5.125 22.375 C5.08375 20.27125 5.0425 18.1675 5 16 C-0.28 16 -5.56 16 -11 16 C-11 17.98 -11 19.96 -11 22 C-8.03 22 -5.06 22 -2 22 C-2 23.65 -2 25.3 -2 27 C-12.87179487 27.76923077 -12.87179487 27.76923077 -16.75 25.125 C-18.53220871 20.66947821 -18.76580026 16.73041201 -18 12 C-16.5 9.375 -16.5 9.375 -14 8 C-9.70702487 7.34352895 -6.70158075 7.5322795 -3 10 C0.63939932 9.68269476 0.63939932 9.68269476 4 9 C3.78185746 5.9460044 2.94124627 4.94124627 0.75 2.75 C-6.0267002 -1.39497197 -16.40704196 -0.44577493 -22 5 Z " fill="#D6E1E1" transform="translate(47,148)"/>
<path d="M0 0 C3.05254225 1.49102863 5.32103224 3.02011021 7 6 C7 8.64 7 11.28 7 14 C1.39 14 -4.22 14 -10 14 C-7.73300478 18.99112846 -7.73300478 18.99112846 -4.95703125 19.70703125 C-4.24933594 19.74183594 -3.54164062 19.77664062 -2.8125 19.8125 C-0.9253125 19.9053125 -0.9253125 19.9053125 1 20 C1 19.34 1 18.68 1 18 C1.99 18 2.98 18 4 18 C4.33 19.65 4.66 21.3 5 23 C0.77177488 25.11411256 -3.34060249 25.75681016 -8 25 C-11.75212276 22.98497111 -13.63644095 21.54533858 -16 18 C-16.67083907 13.11061522 -17.29030459 7.55520948 -15.0078125 3.03515625 C-10.89347038 -0.97458395 -5.30496628 -1.16124459 0 0 Z M-8 8 C-8 8.33 -8 8.66 -8 9 C-5.69 9 -3.38 9 -1 9 C-1 8.67 -1 8.34 -1 8 C-3.31 8 -5.62 8 -8 8 Z " fill="#165C5C" transform="translate(73,158)"/>
<path d="M0 0 C3.05835943 1.30103597 3.80345556 2.24023904 6 5 C6.77206755 8.09863353 6.90368307 10.77338281 7 14 C1.39 14 -4.22 14 -10 14 C-9.01 15.65 -8.02 17.3 -7 19 C-3.12418883 19.42281576 0.28393395 19.18914114 4 18 C4.625 19.875 4.625 19.875 5 22 C2.18217958 24.81782042 0.18381974 24.43386243 -3.75 24.5625 C-11.66097338 24.42442346 -11.66097338 24.42442346 -14.875 21.125 C-17.29424389 17.40192685 -17.93952989 13.84616776 -17.63671875 9.4453125 C-16.68122396 5.77574354 -15.05917055 3.67463483 -12.19921875 1.2265625 C-8.15535635 -1.02880659 -4.44760408 -1.01680422 0 0 Z M-7 8 C-7 8.33 -7 8.66 -7 9 C-5.02 9 -3.04 9 -1 9 C-1 8.67 -1 8.34 -1 8 C-2.98 8 -4.96 8 -7 8 Z " fill="#185E5E" transform="translate(129,158)"/>
<path d="M0 0 C1.26096748 0.00033989 1.26096748 0.00033989 2.54740906 0.00068665 C3.45062393 0.0161705 4.35383881 0.03165436 5.28442383 0.04760742 C6.21241287 0.05185226 7.14040192 0.05609711 8.09651184 0.06047058 C11.06178751 0.07726955 14.02638468 0.11492402 16.99145508 0.15307617 C19.00121089 0.16812143 21.01097735 0.18181011 23.02075195 0.1940918 C27.94874794 0.22717709 32.87623646 0.27896784 37.80395508 0.34057617 C37.80395508 1.00057617 37.80395508 1.66057617 37.80395508 2.34057617 C39.12395508 2.67057617 40.44395508 3.00057617 41.80395508 3.34057617 C41.82708988 14.51903788 41.84487599 25.69749392 41.85576725 36.87597466 C41.86099358 42.06616942 41.86808672 47.25634784 41.87939453 52.4465332 C41.89023226 57.45208014 41.8962338 62.45761133 41.89883232 67.4631691 C41.90068497 69.37620415 41.90430252 71.28923831 41.90968513 73.20226669 C41.91690729 75.87452837 41.91794552 78.54672433 41.91748047 81.21899414 C41.92107574 82.0159671 41.92467102 82.81294006 41.92837524 83.63406372 C41.91800724 89.11247185 41.91800724 89.11247185 40.80395508 91.34057617 C25.95395508 91.34057617 11.10395508 91.34057617 -4.19604492 91.34057617 C-4.19604492 91.01057617 -4.19604492 90.68057617 -4.19604492 90.34057617 C9.99395508 90.34057617 24.18395508 90.34057617 38.80395508 90.34057617 C38.80395508 61.63057617 38.80395508 32.92057617 38.80395508 3.34057617 C24.28395508 3.34057617 9.76395508 3.34057617 -5.19604492 3.34057617 C-5.52604492 4.33057617 -5.85604492 5.32057617 -6.19604492 6.34057617 C-6.52604492 5.35057617 -6.85604492 4.36057617 -7.19604492 3.34057617 C-4.88716207 0.58219595 -3.57979223 -0.03225038 0 0 Z " fill="#C3D6D6" transform="translate(157.196044921875,41.659423828125)"/>
<path d="M0 0 C1.98 0 3.96 0 6 0 C6 0.66 6 1.32 6 2 C6.85078125 1.51660156 6.85078125 1.51660156 7.71875 1.0234375 C10.15900224 -0.0713332 11.84036522 -0.32945831 14.5 -0.375 C15.2528125 -0.40335938 16.005625 -0.43171875 16.78125 -0.4609375 C20.12482894 0.23367925 21.10116456 1.13464021 23 4 C23.48645714 7.43028291 23.37583251 10.79444575 23.25 14.25 C23.23195313 15.18585938 23.21390625 16.12171875 23.1953125 17.0859375 C23.14825673 19.39167015 23.08253713 21.69530945 23 24 C20.69 24 18.38 24 16 24 C15.67 18.39 15.34 12.78 15 7 C12.03 7 9.06 7 6 7 C6 12.61 6 18.22 6 24 C4.02 24 2.04 24 0 24 C0 16.08 0 8.16 0 0 Z " fill="#1E6262" transform="translate(85,158)"/>
<path d="M0 0 C2.34375 1.0234375 2.34375 1.0234375 4 2 C3.67 3.65 3.34 5.3 3 7 C-2.94 6.01 -2.94 6.01 -9 5 C-9 5.99 -9 6.98 -9 8 C-8.13375 8.103125 -7.2675 8.20625 -6.375 8.3125 C-1.85926214 9.23237253 1.72117287 10.72117287 5 14 C5.47427696 17.55707721 5.18178704 19.60179982 3.6875 22.875 C0.02800243 25.76855622 -2.69717947 25.47864805 -7.24609375 25.37109375 C-10.10769968 24.98548728 -12.3774144 24.18516119 -15 23 C-15 21.35 -15 19.7 -15 18 C-14.01 17.67 -13.02 17.34 -12 17 C-11.401875 17.309375 -10.80375 17.61875 -10.1875 17.9375 C-7.3653005 19.30828261 -5.0966471 19.14075669 -2 19 C-2 18.01 -2 17.02 -2 16 C-2.60328125 15.90203125 -3.2065625 15.8040625 -3.828125 15.703125 C-7.55656222 15.00554642 -10.40042234 14.40946767 -13.5625 12.25 C-15.49243724 9.22922867 -15.58688021 7.52128126 -15 4 C-11.90666069 -1.59747112 -5.63599962 -0.71278819 0 0 Z " fill="#1A5F5F" transform="translate(155,158)"/>
<path d="M0 0 C3.48959775 -0.20794623 5.52602907 -0.0654618 8.47265625 1.875 C9.91015625 4.1875 9.91015625 4.1875 9.72265625 6.75 C9.11848958 8.5625 8.51432292 10.375 7.91015625 12.1875 C8.24015625 13.1775 8.57015625 14.1675 8.91015625 15.1875 C9.57015625 15.1875 10.23015625 15.1875 10.91015625 15.1875 C12.03515625 21.9375 12.03515625 21.9375 10.91015625 24.1875 C10.25015625 24.1875 9.59015625 24.1875 8.91015625 24.1875 C8.58015625 25.1775 8.25015625 26.1675 7.91015625 27.1875 C3.2465509 29.87260611 -2.0097118 29.99743873 -7.125 28.65234375 C-9.84441214 27.63047019 -11.72514697 26.85253531 -13.15234375 24.25 C-13.0755984 21.71740331 -12.47351373 20.29941733 -11.08984375 18.1875 C-10.42984375 17.8575 -9.76984375 17.5275 -9.08984375 17.1875 C-9.56421875 16.8575 -10.03859375 16.5275 -10.52734375 16.1875 C-12.89664026 13.15480047 -13.31632985 9.93547965 -13.08984375 6.1875 C-11.58984375 3.25 -11.58984375 3.25 -9.08984375 1.1875 C-6.01021293 0.41759229 -3.1430802 0.28199598 0 0 Z M-8.98046875 3.453125 C-11.0262709 6.65149174 -10.38465324 9.47290044 -10.08984375 13.1875 C-7.74069883 15.53664492 -6.13304929 15.91890357 -2.96484375 16.8125 C-2.05476562 17.07289063 -1.1446875 17.33328125 -0.20703125 17.6015625 C0.49164063 17.79492188 1.1903125 17.98828125 1.91015625 18.1875 C1.91015625 19.1775 1.91015625 20.1675 1.91015625 21.1875 C-0.72984375 21.1875 -3.36984375 21.1875 -6.08984375 21.1875 C-6.41984375 20.5275 -6.74984375 19.8675 -7.08984375 19.1875 C-8.07984375 19.1875 -9.06984375 19.1875 -10.08984375 19.1875 C-10.41984375 20.8375 -10.74984375 22.4875 -11.08984375 24.1875 C-7.06104436 27.41053951 -3.46308612 27.76896951 1.52734375 27.59765625 C4.18882876 27.30361546 4.18882876 27.30361546 7.03515625 25.125 C9.31949142 21.54620823 9.31893316 19.35702449 8.91015625 15.1875 C4.61559237 12.88309987 0.5953654 11.40565438 -4.08984375 10.1875 C-4.08984375 9.1975 -4.08984375 8.2075 -4.08984375 7.1875 C-0.45984375 7.5175 3.17015625 7.8475 6.91015625 8.1875 C7.24015625 6.8675 7.57015625 5.5475 7.91015625 4.1875 C5.1320623 1.40940605 3.34260422 1.88794297 -0.52734375 1.875 C-1.68105469 1.85824219 -2.83476562 1.84148437 -4.0234375 1.82421875 C-7.03873737 1.94582421 -7.03873737 1.94582421 -8.98046875 3.453125 Z M-1.08984375 9.1875 C0.89015625 10.1775 0.89015625 10.1775 2.91015625 11.1875 C2.91015625 10.5275 2.91015625 9.8675 2.91015625 9.1875 C1.59015625 9.1875 0.27015625 9.1875 -1.08984375 9.1875 Z M-3.08984375 19.1875 C-1.60484375 20.1775 -1.60484375 20.1775 -0.08984375 21.1875 C0.24015625 20.5275 0.57015625 19.8675 0.91015625 19.1875 C-0.40984375 19.1875 -1.72984375 19.1875 -3.08984375 19.1875 Z " fill="#DBE5E5" transform="translate(187.08984375,155.8125)"/>
<path d="M0 0 C0.78375 0.7425 1.5675 1.485 2.375 2.25 C3.15875 2.78625 3.9425 3.3225 4.75 3.875 C7.09400238 7.30084964 6.46215956 9.9932117 6.02734375 14.0078125 C5.375 16.25 5.375 16.25 2.375 18.25 C3.035 19.57 3.695 20.89 4.375 22.25 C2.59273922 24.76136746 1.1245947 26.07800396 -1.90625 26.7734375 C-6.65467488 27.30262943 -10.93645145 27.36044571 -15.625 26.25 C-15.625 25.59 -15.625 24.93 -15.625 24.25 C-16.615 23.92 -17.605 23.59 -18.625 23.25 C-22.22123724 19.14001459 -23.32071611 15.83548092 -23.0859375 10.5078125 C-22.26557327 6.48941824 -20.37862581 4.25977704 -17.625 1.25 C-16.635 1.25 -15.645 1.25 -14.625 1.25 C-14.625 0.59 -14.625 -0.07 -14.625 -0.75 C-4.125 -2.75 -4.125 -2.75 0 0 Z M-19.39453125 5.0546875 C-21.68409048 9.1395519 -21.70813681 12.75964474 -20.625 17.25 C-19.2825527 20.633208 -17.84731321 22.51061986 -14.625 24.25 C-9.88244742 24.98127795 -5.35765151 25.08731527 -0.625 24.25 C0.035 23.26 0.695 22.27 1.375 21.25 C1.045 20.26 0.715 19.27 0.375 18.25 C-0.3984375 18.4975 -0.3984375 18.4975 -1.1875 18.75 C-4.49953462 19.42939172 -7.25345168 19.61780527 -10.625 19.25 C-11.615 17.6 -12.605 15.95 -13.625 14.25 C-8.015 14.25 -2.405 14.25 3.375 14.25 C3.23060171 7.67150388 3.23060171 7.67150388 -0.0625 2.1875 C-3.55241509 -0.2034274 -6.97838511 -0.59106863 -11.14453125 -0.3515625 C-14.85902948 0.54927644 -16.93585676 2.16968703 -19.39453125 5.0546875 Z M-8.625 17.25 C-8.625 17.58 -8.625 17.91 -8.625 18.25 C-6.975 18.25 -5.325 18.25 -3.625 18.25 C-3.625 17.92 -3.625 17.59 -3.625 17.25 C-5.275 17.25 -6.925 17.25 -8.625 17.25 Z " fill="#F0F4F4" transform="translate(132.625,157.75)"/>
<path d="M0 0 C6.06890175 -0.07408977 12.13754097 -0.12857359 18.20678711 -0.16479492 C20.27193791 -0.17989271 22.3370566 -0.20037274 24.40209961 -0.22631836 C27.36840739 -0.26265795 30.33429171 -0.2797163 33.30078125 -0.29296875 C34.2258699 -0.30845261 35.15095856 -0.32393646 36.1040802 -0.33988953 C36.96474594 -0.34011612 37.82541168 -0.34034271 38.7121582 -0.34057617 C39.46938675 -0.34723801 40.2266153 -0.35389984 41.00679016 -0.36076355 C43.60096602 0.10877261 44.46129718 0.87932319 46 3 C46.39872742 4.9172821 46.39872742 4.9172821 46.43237305 7.10424805 C46.46206429 8.3351844 46.46206429 8.3351844 46.49235535 9.59098816 C46.49874527 10.47232925 46.50513519 11.35367035 46.51171875 12.26171875 C46.52966995 13.16751175 46.54762115 14.07330475 46.56611633 15.00654602 C46.62030659 17.90014996 46.65414286 20.79358815 46.6875 23.6875 C46.72066539 25.64911165 46.75515432 27.61070141 46.79101562 29.57226562 C46.87603806 34.38139097 46.9428076 39.19046641 47 44 C47.99 43.67 48.98 43.34 50 43 C48.56375905 47.30872286 47.45397435 48.54602565 44 52 C43.67 35.83 43.34 19.66 43 3 C32.48125 2.8453125 32.48125 2.8453125 21.75 2.6875 C19.54151367 2.64197998 17.33302734 2.59645996 15.05761719 2.54956055 C13.30405191 2.5349554 11.55046968 2.52221479 9.796875 2.51171875 C8.8888916 2.48613892 7.9809082 2.46055908 7.04541016 2.4342041 C1.6354306 2.35610699 1.6354306 2.35610699 -2.61230469 5.53051758 C-3.07024414 6.34544678 -3.52818359 7.16037598 -4 8 C-4.33 7.34 -4.66 6.68 -5 6 C-4.67 5.34 -4.34 4.68 -4 4 C-3.34 4 -2.68 4 -2 4 C-1.34 2.68 -0.68 1.36 0 0 Z " fill="#E8F1F1" transform="translate(89,20)"/>
<path d="M0 0 C2.5 1.5 2.5 1.5 4 4 C4.01707391 6.08301676 3.75841771 7.9569013 3.359375 10 C2.88209662 12.31748609 2.88209662 12.31748609 3 16 C-0.24629847 17.08209949 -0.87436498 16.78140875 -4 16 C-4.99 16.33 -5.98 16.66 -7 17 C-9 15.625 -9 15.625 -11 13 C-11.57845613 9.60157026 -11.76529894 6.37069167 -11 3 C-7.53569233 -0.40457823 -4.77467496 -0.59683437 0 0 Z " fill="#F5F8F8" transform="translate(89,192)"/>
<path d="M0 0 C6.5015528 -0.36801242 6.5015528 -0.36801242 8.671875 1.234375 C11.07141344 4.42434964 11.24704175 8.09674036 11 12 C8.85065086 15.07049877 7.54925112 15.81691629 4 17 C-2.52671756 14.70992366 -2.52671756 14.70992366 -5 11 C-4.625 7.3125 -4.625 7.3125 -4 4 C-3.01 3.67 -2.02 3.34 -1 3 C-0.67 2.01 -0.34 1.02 0 0 Z M3 7 C2.67 7.66 2.34 8.32 2 9 C2.66 9 3.32 9 4 9 C3.67 8.34 3.34 7.68 3 7 Z " fill="#306F6F" transform="translate(105,192)"/>
<path d="M0 0 C3.15455668 0.63091134 3.91942834 1.03658595 5.8125 3.5625 C6.48506446 7.28402332 6.41145882 10.83184224 5.8125 14.5625 C3.75 16.9375 3.75 16.9375 0.8125 17.5625 C-3.05458026 16.36237164 -6.89815217 15.0638555 -9.1875 11.5625 C-9.75 9.25 -9.75 9.25 -9.1875 6.5625 C-6.67106597 2.8959432 -4.42852559 0.78150452 0 0 Z " fill="#E3EAEA" transform="translate(64.1875,191.4375)"/>
<path d="M0 0 C0.61328125 1.796875 0.61328125 1.796875 1 4 C-0.8125 7.25 -0.8125 7.25 -3 10 C-3.66 10 -4.32 10 -5 10 C-5.14308594 10.81597656 -5.14308594 10.81597656 -5.2890625 11.6484375 C-6.20065575 14.66370747 -7.68057152 16.97254023 -9.375 19.625 C-10.28378906 21.06746094 -10.28378906 21.06746094 -11.2109375 22.5390625 C-13 25 -13 25 -16 27 C-19.01049301 27.20854708 -21.92621544 27.30400987 -24.9375 27.30078125 C-25.81398193 27.30506638 -26.69046387 27.3093515 -27.59350586 27.31376648 C-29.44611751 27.31950796 -31.29875171 27.32001138 -33.15136719 27.31567383 C-35.98932202 27.3125119 -38.82623644 27.3359816 -41.6640625 27.36132812 C-43.46354035 27.3636009 -45.26302101 27.36430472 -47.0625 27.36328125 C-47.91255615 27.372491 -48.7626123 27.38170074 -49.63842773 27.39118958 C-55.60506408 27.34420011 -55.60506408 27.34420011 -57.74780273 25.47673035 C-58.36764038 24.74574883 -58.36764038 24.74574883 -59 24 C-57.69329346 24.01683838 -56.38658691 24.03367676 -55.0402832 24.05102539 C-50.18498749 24.10171595 -45.33127007 24.09329005 -40.47583008 24.06713867 C-38.37585707 24.06405929 -36.27579685 24.07694461 -34.17602539 24.10620117 C-31.15346177 24.14552954 -28.13586109 24.12715257 -25.11328125 24.09765625 C-23.70832146 24.13452293 -23.70832146 24.13452293 -22.27497864 24.1721344 C-19.57090303 24.11273934 -17.52623301 23.97527287 -15 23 C-12.66768448 20.24863224 -11.41872611 17.28604551 -10 14 C-8.32953542 11.40382639 -6.51471678 8.9252218 -4.6875 6.4375 C-4.23310547 5.81037109 -3.77871094 5.18324219 -3.31054688 4.53710938 C-2.21145601 3.02152091 -1.10638629 1.510271 0 0 Z " fill="#E2ECEC" transform="translate(79,109)"/>
<path d="M0 0 C0.721875 0.37125 1.44375 0.7425 2.1875 1.125 C5.64380716 2.20029556 6.80104329 1.46979092 10 0 C10.66 0.33 11.32 0.66 12 1 C12.6168993 10.9389332 12.6168993 10.9389332 10.4375 14.6875 C7.03362851 16.52035388 4.80853299 16.54407614 1 16 C-1.4375 14.5625 -1.4375 14.5625 -3 12 C-3.48738582 8.93168474 -3.62363479 6.05075396 -3 3 C-1.47265625 1.22265625 -1.47265625 1.22265625 0 0 Z " fill="#DDE6E6" transform="translate(127,192)"/>
<path d="M0 0 C1.9375 1.0625 1.9375 1.0625 3 3 C3.3125 6.5625 3.3125 6.5625 3 10 C2.34 10.66 1.68 11.32 1 12 C-0.32 12 -1.64 12 -3 12 C-3.33 13.32 -3.66 14.64 -4 16 C-5.65 15.67 -7.3 15.34 -9 15 C-9 10.38 -9 5.76 -9 1 C-5.95016004 -0.52491998 -3.3576631 -0.23562548 0 0 Z " fill="#F5F8F8" transform="translate(157,192)"/>
<path d="M0 0 C1.98 0 3.96 0 6 0 C6.97758625 5.45275886 6.97344509 10.42516763 6.5625 15.9375 C6.48418945 17.10635742 6.48418945 17.10635742 6.40429688 18.29882812 C6.27601936 20.19966772 6.13892679 22.09990904 6 24 C4.02 24 2.04 24 0 24 C0 16.08 0 8.16 0 0 Z " fill="#125A5A" transform="translate(85,158)"/>
<path d="M0 0 C1.98 0 3.96 0 6 0 C6 7.92 6 15.84 6 24 C4.02 24 2.04 24 0 24 C0 16.08 0 8.16 0 0 Z " fill="#165D5D" transform="translate(165,158)"/>
<path d="M0 0 C3.29714793 0.32971479 4.6226839 0.6226839 7 3 C7.34361606 6.95158471 7.08901197 9.60535554 5 13 C3.02 13 1.04 13 -1 13 C-1 20.92 -1 28.84 -1 37 C-1.33 37 -1.66 37 -2 37 C-2.02886751 32.85418113 -2.04675327 28.70838784 -2.0625 24.5625 C-2.07087891 23.37849609 -2.07925781 22.19449219 -2.08789062 20.97460938 C-2.09111328 19.84990234 -2.09433594 18.72519531 -2.09765625 17.56640625 C-2.10289307 16.52427979 -2.10812988 15.48215332 -2.11352539 14.40844727 C-2 12 -2 12 -1 11 C-2.32 9.68 -3.64 8.36 -5 7 C-3.47793991 4.37098712 -2.15634036 2.15634036 0 0 Z " fill="#DBE4E4" transform="translate(166,145)"/>
<path d="M0 0 C0.66 0 1.32 0 2 0 C2.96844946 6.19807651 3.06391671 12.2525659 2.75 18.5 C2.72365479 19.20640625 2.69730957 19.9128125 2.67016602 20.640625 C2.546875 22.65625 2.546875 22.65625 2 26 C-1 28 -1 28 -4.0625 27.75 C-7 27 -7 27 -9 25 C-10.85999794 17.17183475 -9.74036257 8.9047942 -9 1 C-8.34 1 -7.68 1 -7 1 C-7 8.92 -7 16.84 -7 25 C-4.69 25 -2.38 25 0 25 C0 16.75 0 8.5 0 0 Z " fill="#E9EFEF" transform="translate(171,157)"/>
<path d="M0 0 C1.22203125 0.00515625 2.4440625 0.0103125 3.703125 0.015625 C4.91484375 0.01046875 6.1265625 0.0053125 7.375 0 C11.5938808 0.31319202 15.16722686 0.9250801 18.60571289 3.50610352 C20.46578007 5.93507691 20.29639116 7.55523344 20.24609375 10.58984375 C20.23642578 11.61787109 20.22675781 12.64589844 20.21679688 13.70507812 C20.19166016 14.77693359 20.16652344 15.84878906 20.140625 16.953125 C20.12032227 18.57831055 20.12032227 18.57831055 20.09960938 20.23632812 C20.06423143 22.91325905 20.01486689 25.58919338 19.953125 28.265625 C16.640625 28.953125 16.640625 28.953125 12.953125 29.265625 C10.90534238 27.78299153 10.08429309 26.84236466 9.52075195 24.36450195 C9.49456787 23.66800537 9.46838379 22.97150879 9.44140625 22.25390625 C9.40595703 21.49658203 9.37050781 20.73925781 9.33398438 19.95898438 C9.31142578 19.17330078 9.28886719 18.38761719 9.265625 17.578125 C9.23146484 16.78083984 9.19730469 15.98355469 9.16210938 15.16210938 C9.07974396 13.19710596 9.01475433 11.23138804 8.953125 9.265625 C9.943125 9.265625 10.933125 9.265625 11.953125 9.265625 C11.953125 14.875625 11.953125 20.485625 11.953125 26.265625 C14.263125 26.265625 16.573125 26.265625 18.953125 26.265625 C18.87227797 22.99377692 18.75943626 19.72379721 18.640625 16.453125 C18.61806641 15.52435547 18.59550781 14.59558594 18.57226562 13.63867188 C18.5190918 12.2996582 18.5190918 12.2996582 18.46484375 10.93359375 C18.43865967 10.11141357 18.41247559 9.2892334 18.38549805 8.44213867 C17.86145766 5.80418269 17.06511628 4.88698743 14.953125 3.265625 C12.8078021 2.86638738 12.8078021 2.86638738 10.515625 3.015625 C9.37287109 3.03882813 9.37287109 3.03882813 8.20703125 3.0625 C6.02701239 3.25896617 4.05628896 3.67156502 1.953125 4.265625 C1.953125 3.605625 1.953125 2.945625 1.953125 2.265625 C-0.356875 2.265625 -2.666875 2.265625 -5.046875 2.265625 C-3.046875 0.265625 -3.046875 0.265625 0 0 Z " fill="#E1E7E7" transform="translate(89.046875,155.734375)"/>
<path d="M0 0 C0.66 0 1.32 0 2 0 C2.33 9.9 2.66 19.8 3 30 C17.19 30.33 31.38 30.66 46 31 C46 31.33 46 31.66 46 32 C39.78870302 32.09877896 33.57786182 32.17142631 27.3659668 32.21972656 C25.25227903 32.23985847 23.13864706 32.26716643 21.02514648 32.30175781 C17.98928065 32.35020627 14.95415022 32.37295276 11.91796875 32.390625 C10.4975251 32.42159271 10.4975251 32.42159271 9.04838562 32.45318604 C2.55432727 32.45541386 2.55432727 32.45541386 -0.1015625 30.2734375 C-1.10225639 27.74124686 -1.34526306 25.95367908 -1.29296875 23.234375 C-1.28330078 22.34492187 -1.27363281 21.45546875 -1.26367188 20.5390625 C-1.23853516 19.61867188 -1.21339844 18.69828125 -1.1875 17.75 C-1.17396484 16.81414062 -1.16042969 15.87828125 -1.14648438 14.9140625 C-1.11119954 12.60878673 -1.06190281 10.3046894 -1 8 C-1.66 7.67 -2.32 7.34 -3 7 C-2.01 4.69 -1.02 2.38 0 0 Z " fill="#EDF1F1" transform="translate(150,102)"/>
<path d="M0 0 C0.99 0.33 1.98 0.66 3 1 C2.01 1.66 1.02 2.32 0 3 C-4.08800569 8.97477754 -4.82244324 14.86840318 -4 22 C-1.38679161 27.13308791 1.53937241 30.1797908 7 32 C9.57265818 32.07029121 12.11641431 32.09370832 14.6875 32.0625 C15.38939453 32.05798828 16.09128906 32.05347656 16.81445312 32.04882812 C18.54300538 32.03706927 20.27151365 32.01913454 22 32 C21.67 32.66 21.34 33.32 21 34 C14.5121349 35.29083821 6.56044165 36.32872129 0.83203125 32.58203125 C-2.69243443 29.75622072 -4.71789988 27.96971915 -6 23.5625 C-6 22.716875 -6 21.87125 -6 21 C-6.66 21 -7.32 21 -8 21 C-8.74926071 17.33694766 -9.2380014 14.57644848 -8 11 C-7.34 11 -6.68 11 -6 11 C-5.67 9.02 -5.34 7.04 -5 5 C-4.34 5 -3.68 5 -3 5 C-2.690625 4.360625 -2.38125 3.72125 -2.0625 3.0625 C-1 1 -1 1 0 0 Z " fill="#E1E8E8" transform="translate(26,150)"/>
<path d="M0 0 C1 2 1 2 0.28125 4.24609375 C-1.14308462 7.30754468 -2.76984028 10.16301623 -4.5 13.0625 C-6.4456759 16.33140041 -8.35436566 19.5688524 -10 23 C-10.66 23 -11.32 23 -12 23 C-12.33 24.32 -12.66 25.64 -13 27 C-27.85 27 -42.7 27 -58 27 C-58 26.67 -58 26.34 -58 26 C-56.74453369 26.05349609 -55.48906738 26.10699219 -54.19555664 26.16210938 C-49.50457137 26.34043604 -44.81683658 26.41158867 -40.12280273 26.45166016 C-38.09805164 26.48364266 -36.07353143 26.54408954 -34.05053711 26.63427734 C-22.98741357 27.53123319 -22.98741357 27.53123319 -13.22116089 23.44506836 C-10.26133325 19.62181809 -8.4472113 15.42983892 -6.77659607 10.92150879 C-5.67768409 8.20250322 -4.11838231 5.89159756 -2.4375 3.5 C-1.72400391 2.46359375 -1.72400391 2.46359375 -0.99609375 1.40625 C-0.66738281 0.9421875 -0.33867187 0.478125 0 0 Z " fill="#ACC8C7" transform="translate(147,107)"/>
<path d="M0 0 C0.639375 0.28875 1.27875 0.5775 1.9375 0.875 C5.88410292 2.3247725 9.8874607 3.15778062 14 4 C14.5625 5.9375 14.5625 5.9375 15 8 C14 9 14 9 11.3125 9.1875 C7.87374757 8.99285364 5.20497153 8.22094153 2 7 C1.67 8.65 1.34 10.3 1 12 C4.56817487 12.80947706 7.90481856 13.16206411 11.5625 13.1875 C12.49191406 13.20167969 13.42132813 13.21585938 14.37890625 13.23046875 C17.07488389 12.99341557 18.69407875 12.37270136 21 11 C20 14 20 14 17.9375 15.1875 C11.94454509 16.84512583 6.68367212 16.43585948 1 14 C0.34 13.34 -0.32 12.68 -1 12 C-0.625 8.875 -0.625 8.875 0 6 C0.99 5.67 1.98 5.34 3 5 C2.2575 4.319375 2.2575 4.319375 1.5 3.625 C0 2 0 2 0 0 Z M9 6 C10.485 6.99 10.485 6.99 12 8 C12.33 7.34 12.66 6.68 13 6 C11.68 6 10.36 6 9 6 Z " fill="#D7E2E2" transform="translate(139,169)"/>
<path d="M0 0 C0.33 0 0.66 0 1 0 C1.33 14.52 1.66 29.04 2 44 C3.98 40.7 5.96 37.4 8 34 C8.66 33.01 9.32 32.02 10 31 C10.66 31 11.32 31 12 31 C12.28875 30.195625 12.5775 29.39125 12.875 28.5625 C14 26 14 26 16 25 C14.67370498 28.58582016 13.07863922 31.66046555 10.99609375 34.86328125 C10.42052734 35.74951172 9.84496094 36.63574219 9.25195312 37.54882812 C8.65318359 38.46083984 8.05441406 39.37285156 7.4375 40.3125 C6.83486328 41.24384766 6.23222656 42.17519531 5.61132812 43.13476562 C2.29031729 48.22250949 2.29031729 48.22250949 1 50 C0.67 50 0.34 50 0 50 C0 33.5 0 17 0 0 Z " fill="#FBFDFD" transform="translate(66,8)"/>
<path d="M0 0 C2.97 0 5.94 0 9 0 C9.75698611 3.70082097 10.16166616 6.38592751 9 10 C9 10.66 9 11.32 9 12 C6.00667261 11.0022242 5.05233685 10.2477975 3 8 C3 9.32 3 10.64 3 12 C2.01 12 1.02 12 0 12 C0 8.04 0 4.08 0 0 Z " fill="#467D7D" transform="translate(81,194)"/>
<path d="M0 0 C0.33 0 0.66 0 1 0 C1 7.92 1 15.84 1 24 C2.98 24 4.96 24 7 24 C7 18.39 7 12.78 7 7 C9.95664519 5.5216774 12.74229737 5.93967217 16 6 C16 6.33 16 6.66 16 7 C14.02 7.66 12.04 8.32 10 9 C9.96261719 10.13179687 9.92523438 11.26359375 9.88671875 12.4296875 C9.82106918 13.91149205 9.75462149 15.39326139 9.6875 16.875 C9.65366211 17.99455078 9.65366211 17.99455078 9.61914062 19.13671875 C9.52188055 21.099604 9.26957706 23.05328322 9 25 C6 27 6 27 0 26 C0 17.42 0 8.84 0 0 Z " fill="#C7D4D4" transform="translate(84,158)"/>
<path d="M0 0 C6.5015528 -0.36801242 6.5015528 -0.36801242 8.671875 1.234375 C11.07141344 4.42434964 11.24704175 8.09674036 11 12 C8.85065086 15.07049877 7.54925112 15.81691629 4 17 C-2.52671756 14.70992366 -2.52671756 14.70992366 -5 11 C-4.625 7.3125 -4.625 7.3125 -4 4 C-3.01 3.67 -2.02 3.34 -1 3 C-0.67 2.01 -0.34 1.02 0 0 Z M-2 4 C-2.3176246 5.91006306 -2.3176246 5.91006306 -2.25 8 C-2.25515625 8.70125 -2.2603125 9.4025 -2.265625 10.125 C-2.15705515 12.2435669 -2.15705515 12.2435669 0 14 C3.10347254 14.33015665 5.15781176 14.50531294 7.875 12.875 C9.52854531 10.11909116 9.39365568 8.14924548 9 5 C8 3 8 3 6 2 C1.48895519 1.44504417 1.48895519 1.44504417 -2 4 Z " fill="#DCE6E6" transform="translate(105,192)"/>
<path d="M0 0 C0.66 0.33 1.32 0.66 2 1 C1.5153125 1.36351562 1.030625 1.72703125 0.53125 2.1015625 C-2.24676617 5.54573561 -1.5148187 9.63571147 -1.4296875 13.8828125 C-1.01131836 16.91789045 -0.74557681 18.12942319 1.375 20.25 C6.46168564 23.64112376 11.10622592 23.48229568 17 22.5 C17.99 22.2525 17.99 22.2525 19 22 C18.67 20.68 18.34 19.36 18 18 C18.99 18 19.98 18 21 18 C20.25 22.75 20.25 22.75 18 25 C12.62184164 26.11238887 7.36026276 26.26953592 2 25 C2 24.34 2 23.68 2 23 C1.360625 22.690625 0.72125 22.38125 0.0625 22.0625 C-2 21 -2 21 -3 20 C-3.15327434 17.00820277 -3.23165249 14.05543676 -3.25 11.0625 C-3.270625 10.22525391 -3.29125 9.38800781 -3.3125 8.52539062 C-3.31765625 7.72423828 -3.3228125 6.92308594 -3.328125 6.09765625 C-3.3374707 5.36039307 -3.34681641 4.62312988 -3.35644531 3.86352539 C-3.23881836 3.24856201 -3.12119141 2.63359863 -3 2 C-2.01 1.34 -1.02 0.68 0 0 Z " fill="#D0DDDD" transform="translate(59,159)"/>
<path d="M0 0 C0.33 1.32 0.66 2.64 1 4 C-1.97 3.505 -1.97 3.505 -5 3 C-5 4.98 -5 6.96 -5 9 C-3.68 9.33 -2.36 9.66 -1 10 C-1 9.34 -1 8.68 -1 8 C-1.66 8 -2.32 8 -3 8 C-3 7.34 -3 6.68 -3 6 C-1.35 6 0.3 6 2 6 C2 7.65 2 9.3 2 11 C-4.25742574 12.32368621 -4.25742574 12.32368621 -7.4375 10.9375 C-9 9 -9 9 -9.4375 6 C-9 3 -9 3 -7.875 1.125 C-5.21965017 -0.4682099 -3.03210482 -0.20214032 0 0 Z " fill="#327070" transform="translate(67,194)"/>
<path d="M0 0 C1.32 0.66 2.64 1.32 4 2 C4.6269791 12.10132996 4.6269791 12.10132996 2.125 15.6875 C0 17 0 17 -2 17 C-2 17.66 -2 18.32 -2 19 C-5.96 19.495 -5.96 19.495 -10 20 C-7 18 -7 18 -3.875 16.75 C0.38468009 12.67552339 -0.18223333 8.6196222 -0.0078125 2.921875 C-0.00523438 1.95765625 -0.00265625 0.9934375 0 0 Z " fill="#DDE7E7" transform="translate(52,163)"/>
<path d="M0 0 C0.99 0.33 1.98 0.66 3 1 C1.7625 1.928125 1.7625 1.928125 0.5 2.875 C-2.0307141 5.41294471 -2.46427193 7.3854096 -2.625 10.9375 C-2.36539855 16.20819604 -0.86778335 18.49201045 3 22 C6.16245541 23.0541518 8.86948218 23.31275672 12.1875 23.5625 C13.27417969 23.64628906 14.36085937 23.73007813 15.48046875 23.81640625 C16.31191406 23.87699219 17.14335937 23.93757813 18 24 C12.75855019 26.90172167 7.71665962 26.38585688 2 25 C2 24.34 2 23.68 2 23 C1.01 22.67 0.02 22.34 -1 22 C-4.59992433 17.88580076 -5.68039116 14.5866646 -5.47265625 9.2578125 C-4.65647696 5.35903872 -2.55485778 3.0019579 0 0 Z " fill="#E7EDED" transform="translate(115,159)"/>
<path d="M0 0 C0.66 0 1.32 0 2 0 C3.125 6.75 3.125 6.75 2 9 C1.34 9 0.68 9 0 9 C-0.33 9.99 -0.66 10.98 -1 12 C-5.66360535 14.68510611 -10.91986805 14.80993873 -16.03515625 13.46484375 C-17.9375 12.75 -17.9375 12.75 -21 11 C-21.9375 8.8125 -21.9375 8.8125 -22 7 C-20 7 -20 7 -18.5 8.4375 C-18.005 8.953125 -17.51 9.46875 -17 10 C-13.29730639 11.8513468 -9.04198754 11.45709067 -5 11 C-2.28892287 9.62283334 -2.28892287 9.62283334 -1 7 C-0.19234122 3.35278304 -0.19234122 3.35278304 0 0 Z " fill="#DFE7E7" transform="translate(196,171)"/>
<path d="M0 0 C2.52227683 2.45221358 4.16289315 4.08124304 4.4453125 7.66796875 C4.38020833 10.17447917 4.31510417 12.68098958 4.25 15.1875 C-1.36 15.1875 -6.97 15.1875 -12.75 15.1875 C-13.08 15.8475 -13.41 16.5075 -13.75 17.1875 C-13.75 16.1975 -13.75 15.2075 -13.75 14.1875 C-8.14 14.1875 -2.53 14.1875 3.25 14.1875 C2.31001036 7.97481211 2.31001036 7.97481211 -0.6875 2.625 C-5.30144204 0.4592721 -9.73763712 0.87148413 -14.75 1.1875 C-14.75 0.5275 -14.75 -0.1325 -14.75 -0.8125 C-4.2633758 -2.80995223 -4.2633758 -2.80995223 0 0 Z " fill="#B4CBCB" transform="translate(132.75,157.8125)"/>
<path d="M0 0 C0.99 0 1.98 0 3 0 C3.05395478 1.62463842 3.09277195 3.24978541 3.125 4.875 C3.14820313 5.77992188 3.17140625 6.68484375 3.1953125 7.6171875 C3 10 3 10 1 12 C-2.625 12.125 -2.625 12.125 -6 12 C-7.20272819 9.59454362 -7.10071472 8.05003047 -7.0625 5.375 C-7.05347656 4.55773437 -7.04445313 3.74046875 -7.03515625 2.8984375 C-7.02355469 2.27195313 -7.01195313 1.64546875 -7 1 C-6.34 1 -5.68 1 -5 1 C-4.67 3.64 -4.34 6.28 -4 9 C-2.68 9.33 -1.36 9.66 0 10 C0 6.7 0 3.4 0 0 Z " fill="#3A7575" transform="translate(134,194)"/>
<path d="M0 0 C1.45922693 0.11409593 2.91740598 0.24165544 4.375 0.375 C5.59316406 0.47941406 5.59316406 0.47941406 6.8359375 0.5859375 C9 1 9 1 11 3 C11.71408334 4.98356483 12.38617742 6.98315437 13 9 C11.03964825 8.55037804 9.08175691 8.09001752 7.125 7.625 C6.03445312 7.36976563 4.94390625 7.11453125 3.8203125 6.8515625 C1 6 1 6 -1 4 C-0.625 1.875 -0.625 1.875 0 0 Z M3 3 C4.98 3.99 4.98 3.99 7 5 C7 4.34 7 3.68 7 3 C5.68 3 4.36 3 3 3 Z " fill="#E2E9E9" transform="translate(183,162)"/>
<path d="M0 0 C0 0.66 0 1.32 0 2 C0.99 2 1.98 2 3 2 C5.80255323 4.9063515 6 5.78825048 6 10 C4.68 10.33 3.36 10.66 2 11 C2.33 9.35 2.66 7.7 3 6 C-1.63580151 2.33179569 -4.92127992 1.45000635 -10.875 1.75 C-11.56335937 1.76804688 -12.25171875 1.78609375 -12.9609375 1.8046875 C-14.6412381 1.85136252 -16.32081163 1.92309061 -18 2 C-16 -1 -16 -1 -13.9375 -1.75 C-9.35227779 -2.14023168 -4.17582673 -2.08791337 0 0 Z " fill="#E1EAEA" transform="translate(47,148)"/>
<path d="M0 0 C5.28 0 10.56 0 16 0 C15.67 1.32 15.34 2.64 15 4 C13.35 3.67 11.7 3.34 10 3 C10 3.66 10 4.32 10 5 C3.9453125 5.1953125 3.9453125 5.1953125 2 5 C1.34 4.34 0.68 3.68 0 3 C0 2.01 0 1.02 0 0 Z M4 2 C8 3 8 3 8 3 Z " fill="#F3F6F6" transform="translate(64,173)"/>
<path d="M0 0 C0.33 0 0.66 0 1 0 C1.33 13.53 1.66 27.06 2 41 C3.485 40.505 3.485 40.505 5 40 C3.75023244 43.65316671 3.32901247 44.78065836 0 47 C0 31.49 0 15.98 0 0 Z " fill="#F9FBFB" transform="translate(134,23)"/>
<path d="M0 0 C7.38461538 -0.36923077 7.38461538 -0.36923077 10.5 1.5 C10.995 1.995 11.49 2.49 12 3 C11.01 3.495 11.01 3.495 10 4 C10.825 4.28875 11.65 4.5775 12.5 4.875 C15 7 15 7 15.33203125 9.42578125 C15.31406576 11.9661018 15.21368825 14.46898139 15 17 C13.68 17.33 12.36 17.66 11 18 C11.66 17.01 12.32 16.02 13 15 C13.58333333 12 13.58333333 12 13 9 C9.33720854 5.9095197 4.47413608 4.59248911 0 3 C0 2.01 0 1.02 0 0 Z M5 1 C4.67 1.66 4.34 2.32 4 3 C5.32 3.33 6.64 3.66 8 4 C8 3.34 8 2.68 8 2 C7.01 1.67 6.02 1.34 5 1 Z " fill="#DEE5E5" transform="translate(146,163)"/>
<path d="M0 0 C3.48959775 -0.20794623 5.52602907 -0.0654618 8.47265625 1.875 C9.91015625 4.1875 9.91015625 4.1875 9.78515625 6.8125 C8.91015625 9.1875 8.91015625 9.1875 6.91015625 11.1875 C6.25015625 10.5275 5.59015625 9.8675 4.91015625 9.1875 C5.57015625 9.1875 6.23015625 9.1875 6.91015625 9.1875 C6.95287725 7.52138095 6.95079457 5.85367115 6.91015625 4.1875 C5.04098831 2.31833206 2.03571051 2.97061992 -0.46484375 2.9375 C-1.62757813 2.91171875 -2.7903125 2.8859375 -3.98828125 2.859375 C-7.03134434 2.93761526 -7.03134434 2.93761526 -8.9609375 4.44140625 C-10.29370108 6.50280874 -10.57762242 7.9383998 -10.77734375 10.375 C-10.88046875 11.633125 -10.98359375 12.89125 -11.08984375 14.1875 C-11.41984375 14.1875 -11.74984375 14.1875 -12.08984375 14.1875 C-13.5383286 7.06578283 -13.5383286 7.06578283 -11.58984375 3.25 C-7.85481138 0.16859829 -4.6598496 0.41807996 0 0 Z " fill="#E5EBEB" transform="translate(187.08984375,155.8125)"/>
<path d="M0 0 C0.99 0.66 1.98 1.32 3 2 C2.73958333 3.953125 2.47916667 5.90625 2.21875 7.859375 C1.93222643 10.30458395 1.93222643 10.30458395 2 14 C-2.25061356 15.41687119 -4.71851625 14.19320039 -9 13 C-8.01 12.67 -7.02 12.34 -6 12 C-6 10.68 -6 9.36 -6 8 C-3.00667261 8.9977758 -2.05233685 9.7522025 0 12 C-0.2784375 10.9171875 -0.2784375 10.9171875 -0.5625 9.8125 C-1.02290139 6.8527768 -0.70143917 4.88369435 0 2 C0 1.34 0 0.68 0 0 Z " fill="#E0E9E9" transform="translate(90,194)"/>
<path d="M0 0 C2.625 0.375 2.625 0.375 5 1 C5.625 3.375 5.625 3.375 6 6 C5.34 6.66 4.68 7.32 4 8 C1.375 7.625 1.375 7.625 -1 7 C-1.625 4.625 -1.625 4.625 -2 2 C-1.34 1.34 -0.68 0.68 0 0 Z " fill="#598B8B" transform="translate(166,147)"/>
<path d="M0 0 C1.98 0 3.96 0 6 0 C4.68 0.33 3.36 0.66 2 1 C2 2.32 2 3.64 2 5 C3.98491642 4.73323796 3.98491642 4.73323796 6 4 C6.33 3.01 6.66 2.02 7 1 C7.66 1 8.32 1 9 1 C8.125 5.875 8.125 5.875 7 7 C5.33382885 7.04063832 3.66611905 7.042721 2 7 C2 8.32 2 9.64 2 11 C1.34 11 0.68 11 0 11 C0 7.37 0 3.74 0 0 Z " fill="#1E6262" transform="translate(150,195)"/>
<path d="M0 0 C0.66 0 1.32 0 2 0 C2.4125 0.495 2.825 0.99 3.25 1.5 C5.76822501 3.65847858 7.79375585 3.21374961 11 3 C9.35 2.67 7.7 2.34 6 2 C6 1.67 6 1.34 6 1 C8.64 1 11.28 1 14 1 C14 2.32 14 3.64 14 5 C11.67313547 6.16343227 10.15278587 6.19895988 7.5625 6.25 C6.38880859 6.28867188 6.38880859 6.28867188 5.19140625 6.328125 C3 6 3 6 1.21484375 4.671875 C0 3 0 3 0 0 Z " fill="#EBF1F1" transform="translate(30,170)"/>
<path d="M0 0 C3.5625 0.1875 3.5625 0.1875 5.5625 2.1875 C5.5625 3.1775 5.5625 4.1675 5.5625 5.1875 C1.9325 5.1875 -1.6975 5.1875 -5.4375 5.1875 C-4.19786866 0.22897465 -4.19786866 0.22897465 0 0 Z M-2.4375 3.1875 C-2.4375 3.5175 -2.4375 3.8475 -2.4375 4.1875 C-0.4575 4.1875 1.5225 4.1875 3.5625 4.1875 C3.5625 3.8575 3.5625 3.5275 3.5625 3.1875 C1.5825 3.1875 -0.3975 3.1875 -2.4375 3.1875 Z " fill="#D3DEDE" transform="translate(124.4375,162.8125)"/>
<path d="M0 0 C0.99088067 3.08273985 0.92482533 4.91724891 0 8 C0 8.66 0 9.32 0 10 C-3.03898126 8.98700625 -4.12139167 8.5048111 -6 6 C-6.1875 3.3125 -6.1875 3.3125 -6 1 C-4.7934375 1.0309375 -4.7934375 1.0309375 -3.5625 1.0625 C-1.06645115 1.29633621 -1.06645115 1.29633621 0 0 Z " fill="#619191" transform="translate(90,196)"/>
<path d="M0 0 C0.598125 0.639375 1.19625 1.27875 1.8125 1.9375 C5.16762751 5.10090594 8.00224389 5.15741007 12.4375 5.1875 C13.85869141 5.20876953 13.85869141 5.20876953 15.30859375 5.23046875 C18.04501644 4.99614518 19.66428123 4.39701383 22 3 C21 6 21 6 18.9375 7.1875 C12.94454509 8.84512583 7.68367212 8.43585948 2 6 C1.34 5.34 0.68 4.68 0 4 C0 2.68 0 1.36 0 0 Z " fill="#EFF2F2" transform="translate(138,177)"/>
<path d="M0 0 C3.5625 0.1875 3.5625 0.1875 5.5625 2.1875 C5.5625 3.1775 5.5625 4.1675 5.5625 5.1875 C1.9325 5.1875 -1.6975 5.1875 -5.4375 5.1875 C-4.19786866 0.22897465 -4.19786866 0.22897465 0 0 Z M-3.4375 3.1875 C-3.4375 3.5175 -3.4375 3.8475 -3.4375 4.1875 C-1.1275 4.1875 1.1825 4.1875 3.5625 4.1875 C3.5625 3.8575 3.5625 3.5275 3.5625 3.1875 C1.2525 3.1875 -1.0575 3.1875 -3.4375 3.1875 Z " fill="#C4D4D4" transform="translate(68.4375,162.8125)"/>
<path d="M0 0 C0 3.40461804 -0.63790758 4.39710193 -2.40625 7.23046875 C-3.15068359 8.43413086 -3.15068359 8.43413086 -3.91015625 9.66210938 C-4.43480469 10.49548828 -4.95945312 11.32886719 -5.5 12.1875 C-6.02464844 13.03248047 -6.54929687 13.87746094 -7.08984375 14.74804688 C-8.38732497 16.83581211 -9.69087803 18.9195216 -11 21 C-12.11572266 17.25439453 -12.11572266 17.25439453 -11.07421875 14.96484375 C-10.38779297 13.96130859 -10.38779297 13.96130859 -9.6875 12.9375 C-9.23761719 12.26589844 -8.78773437 11.59429687 -8.32421875 10.90234375 C-7.88722656 10.27457031 -7.45023437 9.64679687 -7 9 C-6.34 8.01 -5.68 7.02 -5 6 C-4.34 6 -3.68 6 -3 6 C-2.690625 5.195625 -2.38125 4.39125 -2.0625 3.5625 C-1 1 -1 1 0 0 Z " fill="#E4EEED" transform="translate(81,33)"/>
<path d="M0 0 C2.5 0.125 2.5 0.125 3.5 1.125 C3.54063832 2.79117115 3.542721 4.45888095 3.5 6.125 C1.5085944 6.50633299 -0.49279077 6.83825582 -2.5 7.125 C-3.5 6.125 -3.5 6.125 -3.625 3.625 C-3.45661291 0.25725827 -3.36774173 0.16838709 0 0 Z M-0.5 2.125 C-0.83 2.785 -1.16 3.445 -1.5 4.125 C-0.84 4.125 -0.18 4.125 0.5 4.125 C0.17 3.465 -0.16 2.805 -0.5 2.125 Z " fill="#D3E0E0" transform="translate(108.5,196.875)"/>
<path d="M0 0 C2.64 0 5.28 0 8 0 C8.33 0.66 8.66 1.32 9 2 C8.0625 4.125 8.0625 4.125 7 6 C5.68 6 4.36 6 3 6 C3 4.68 3 3.36 3 2 C2.34 1.67 1.68 1.34 1 1 C1 4.63 1 8.26 1 12 C0.67 12 0.34 12 0 12 C0 8.04 0 4.08 0 0 Z " fill="#89ACAC" transform="translate(149,194)"/>
<path d="M0 0 C0.33 1.32 0.66 2.64 1 4 C-1.97 3.505 -1.97 3.505 -5 3 C-5.33 4.65 -5.66 6.3 -6 8 C-6.99 8.33 -7.98 8.66 -9 9 C-9.36 3.6 -9.36 3.6 -7.875 1.125 C-5.21965017 -0.4682099 -3.03210482 -0.20214032 0 0 Z " fill="#568989" transform="translate(67,194)"/>
<path d="M0 0 C0 0.33 0 0.66 0 1 C-1.7634375 1.0309375 -1.7634375 1.0309375 -3.5625 1.0625 C-8.96904833 1.67928983 -11.6478689 4.98791809 -15 9 C-15.33 7.68 -15.66 6.36 -16 5 C-10.92092974 -0.34638974 -7.21564884 -0.6417079 0 0 Z " fill="#367272" transform="translate(73,158)"/>
<path d="M0 0 C0.99 0.33 1.98 0.66 3 1 C2.01 1.66 1.02 2.32 0 3 C-2.66078044 6.67870612 -3.54964135 9.84748944 -4.1875 14.3125 C-4.42533203 15.91544922 -4.42533203 15.91544922 -4.66796875 17.55078125 C-4.77753906 18.35902344 -4.88710938 19.16726562 -5 20 C-5.33 20 -5.66 20 -6 20 C-6.02715383 18.25008666 -6.04646551 16.50005055 -6.0625 14.75 C-6.07410156 13.77546875 -6.08570312 12.8009375 -6.09765625 11.796875 C-6.01195577 9.34241322 -5.70706066 7.33831086 -5 5 C-4.34 5 -3.68 5 -3 5 C-2.5359375 4.0409375 -2.5359375 4.0409375 -2.0625 3.0625 C-1 1 -1 1 0 0 Z " fill="#A9C2C2" transform="translate(26,150)"/>
<path d="M0 0 C0.99 0.33 1.98 0.66 3 1 C3.125 4.375 3.125 4.375 3 8 C2.34 8.66 1.68 9.32 1 10 C-0.32 10 -1.64 10 -3 10 C-3 10.99 -3 11.98 -3 13 C-4.32 12.67 -5.64 12.34 -7 12 C-6.34 12 -5.68 12 -5 12 C-5 10.68 -5 9.36 -5 8 C-3.02 7.34 -1.04 6.68 1 6 C0.67 4.02 0.34 2.04 0 0 Z " fill="#D9E3E3" transform="translate(157,194)"/>
<path d="M0 0 C6.625 0.75 6.625 0.75 10 3 C9.67 4.32 9.34 5.64 9 7 C6.36 7 3.72 7 1 7 C0.67 6.34 0.34 5.68 0 5 C2.31 5 4.62 5 7 5 C6.01 4.34 5.02 3.68 4 3 C2.66209359 2.00612666 1.32781878 1.0073108 0 0 Z " fill="#A2BEBE" transform="translate(180,171)"/>
<path d="M0 0 C1.99609375 0.05078125 1.99609375 0.05078125 4.4375 0.3125 C5.64212891 0.43044922 5.64212891 0.43044922 6.87109375 0.55078125 C9 1 9 1 11 3 C7.7 2.67 4.4 2.34 1 2 C1.95865509 4.33075929 1.95865509 4.33075929 5 6 C3.35 5.67 1.7 5.34 0 5 C-0.5625 3.0625 -0.5625 3.0625 -1 1 C-0.67 0.67 -0.34 0.34 0 0 Z " fill="#8AABAB" transform="translate(183,162)"/>
<path d="M0 0 C2.46800047 1.15173355 4.04783565 2.04783565 6 4 C5.64700993 7.44165321 4.95418308 9.06872538 3 12 C2.01 11.67 1.02 11.34 0 11 C0.99 10.67 1.98 10.34 3 10 C3 8.02 3 6.04 3 4 C2.01 3.67 1.02 3.34 0 3 C0 2.01 0 1.02 0 0 Z " fill="#EFF4F4" transform="translate(155,156)"/>
<path d="M0 0 C0.66 0 1.32 0 2 0 C0.59601721 4.10110762 -1.37087038 6.98089159 -4.125 10.3125 C-4.84945312 11.19550781 -5.57390625 12.07851563 -6.3203125 12.98828125 C-7.15175781 13.98408203 -7.15175781 13.98408203 -8 15 C-8 10.93694627 -6.3261787 9.29541982 -4 6 C-3.29875 4.88625 -2.5975 3.7725 -1.875 2.625 C-1.25625 1.75875 -0.6375 0.8925 0 0 Z " fill="#E4EDED" transform="translate(148,48)"/>
<path d="M0 0 C2.875 -0.125 2.875 -0.125 6 0 C8 2 8 2 8.125 5.125 C8.08375 6.07375 8.0425 7.0225 8 8 C6.02 8.99 6.02 8.99 4 10 C4 9.34 4 8.68 4 8 C4.66 8 5.32 8 6 8 C4.98839152 3.60685207 4.98839152 3.60685207 1.875 0.625 C1.25625 0.41875 0.6375 0.2125 0 0 Z " fill="#256767" transform="translate(106,195)"/>
<path d="M0 0 C0 0.33 0 0.66 0 1 C-3.3 1 -6.6 1 -10 1 C-10.66 2.32 -11.32 3.64 -12 5 C-12.66 5 -13.32 5 -14 5 C-14 6.65 -14 8.3 -14 10 C-14.33 10 -14.66 10 -15 10 C-15.30375856 6.65865579 -15.32796316 4.59345714 -13.6875 1.625 C-9.38906162 -0.97405576 -4.89867185 -0.30405549 0 0 Z " fill="#3E7878" transform="translate(155,158)"/>
<path d="M0 0 C2.375 -0.125 2.375 -0.125 5 0 C7 2 7 2 7.1953125 4.3828125 C7.17210937 5.28773438 7.14890625 6.19265625 7.125 7.125 C7.10695312 8.03507813 7.08890625 8.94515625 7.0703125 9.8828125 C7.04710937 10.58148438 7.02390625 11.28015625 7 12 C5.68 12.33 4.36 12.66 3 13 C3.66 12.01 4.32 11.02 5 10 C5.58345476 7.04253508 5.58345476 7.04253508 5 4 C2.62157423 1.59593616 2.62157423 1.59593616 0 0 Z " fill="#BED0D0" transform="translate(154,168)"/>
<path d="M0 0 C0.33 0 0.66 0 1 0 C1.08082094 1.95766281 1.13910778 3.91626728 1.1875 5.875 C1.22230469 6.96554688 1.25710937 8.05609375 1.29296875 9.1796875 C1.19628906 10.11039063 1.09960938 11.04109375 1 12 C-2.6441774 14.4294516 -4.71241272 14.16179575 -9 14 C-9 13.67 -9 13.34 -9 13 C-7.865625 12.690625 -6.73125 12.38125 -5.5625 12.0625 C-2.21224901 11.37075469 -2.21224901 11.37075469 -1 10 C-0.76712992 8.31816052 -0.58735834 6.6287584 -0.4375 4.9375 C-0.35371094 4.01839844 -0.26992187 3.09929687 -0.18359375 2.15234375 C-0.12300781 1.44207031 -0.06242188 0.73179687 0 0 Z " fill="#DBE4E4" transform="translate(137,194)"/>
<path d="M0 0 C1.98 0.66 3.96 1.32 6 2 C6 2.33 6 2.66 6 3 C4.35 3 2.7 3 1 3 C1 3.66 1 4.32 1 5 C1.66 5 2.32 5 3 5 C3 5.66 3 6.32 3 7 C1.68 6.67 0.36 6.34 -1 6 C-1.042721 4.33388095 -1.04063832 2.66617115 -1 1 C-0.67 0.67 -0.34 0.34 0 0 Z " fill="#487F7F" transform="translate(141,175)"/>
<path d="M0 0 C1.65 0.33 3.3 0.66 5 1 C4.01 1.33 3.02 1.66 2 2 C2 2.66 2 3.32 2 4 C-0.64 4 -3.28 4 -6 4 C-6.33 3.34 -6.66 2.68 -7 2 C-4.69 2 -2.38 2 0 2 C0 1.34 0 0.68 0 0 Z " fill="#C7D7D7" transform="translate(72,174)"/>
<path d="M0 0 C2.475 0.495 2.475 0.495 5 1 C5 2.32 5 3.64 5 5 C3.35 4.67 1.7 4.34 0 4 C0 2.68 0 1.36 0 0 Z " fill="#085353" transform="translate(166,149)"/>
<path d="M0 0 C0.66 0.33 1.32 0.66 2 1 C1.67 2.65 1.34 4.3 1 6 C-3.29 6 -7.58 6 -12 6 C-12 5.67 -12 5.34 -12 5 C-6.555 4.505 -6.555 4.505 -1 4 C-0.67 2.68 -0.34 1.36 0 0 Z " fill="#99B7B7" transform="translate(133,177)"/>
<path d="M0 0 C0.99 0 1.98 0 3 0 C3 0.66 3 1.32 3 2 C4.98 2 6.96 2 9 2 C8.67 2.66 8.34 3.32 8 4 C5.69 4 3.38 4 1 4 C0.67 2.68 0.34 1.36 0 0 Z " fill="#CDDCDC" transform="translate(121,174)"/>
<path d="M0 0 C2.3828125 0.0234375 2.3828125 0.0234375 5.125 0.375 C6.03507812 0.48585937 6.94515625 0.59671875 7.8828125 0.7109375 C8.93082031 0.85402344 8.93082031 0.85402344 10 1 C8.625 2.5 8.625 2.5 7 4 C6.34 4 5.68 4 5 4 C5 3.34 5 2.68 5 2 C2.69 2 0.38 2 -2 2 C-1.34 1.34 -0.68 0.68 0 0 Z " fill="#E6EDED" transform="translate(86,156)"/>
<path d="M0 0 C2.64 0 5.28 0 8 0 C8 1.32 8 2.64 8 4 C5.36 4 2.72 4 0 4 C0 3.67 0 3.34 0 3 C1.65 2.67 3.3 2.34 5 2 C3.35 1.67 1.7 1.34 0 1 C0 0.67 0 0.34 0 0 Z " fill="#FBFCFC" transform="translate(36,171)"/>
<path d="M0 0 C1.98 0 3.96 0 6 0 C6 0.33 6 0.66 6 1 C4.35 1 2.7 1 1 1 C1 1.66 1 2.32 1 3 C1.66 3 2.32 3 3 3 C3 3.66 3 4.32 3 5 C1.35 4.67 -0.3 4.34 -2 4 C-1.34 2.68 -0.68 1.36 0 0 Z " fill="#B7CCCC" transform="translate(63,199)"/>
<path d="M0 0 C0.66 0 1.32 0 2 0 C1.125 4.875 1.125 4.875 0 6 C-1.66617115 6.04063832 -3.33388095 6.042721 -5 6 C-5 5.34 -5 4.68 -5 4 C-4.0409375 3.8453125 -4.0409375 3.8453125 -3.0625 3.6875 C-2.381875 3.460625 -1.70125 3.23375 -1 3 C-0.67 2.01 -0.34 1.02 0 0 Z " fill="#397575" transform="translate(157,196)"/>
<path d="M0 0 C2.31 0 4.62 0 7 0 C7 0.99 7 1.98 7 3 C4.69 3 2.38 3 0 3 C0 2.01 0 1.02 0 0 Z " fill="#E2E9E9" transform="translate(65,163)"/>
<path d="M0 0 C0.66 0 1.32 0 2 0 C2 3.3 2 6.6 2 10 C1.34 10 0.68 10 0 10 C-0.74926071 6.33694766 -1.2380014 3.57644848 0 0 Z " fill="#F7F8F8" transform="translate(18,161)"/>
<path d="M0 0 C2.31 0 4.62 0 7 0 C7 0.66 7 1.32 7 2 C5.02 2.33 3.04 2.66 1 3 C0.67 2.01 0.34 1.02 0 0 Z " fill="#DFE7E7" transform="translate(165,182)"/>
<path d="M0 0 C-0.33 0.99 -0.66 1.98 -1 3 C0.65 3.33 2.3 3.66 4 4 C4 4.33 4 4.66 4 5 C1.69 5.33 -0.62 5.66 -3 6 C-3.33 4.35 -3.66 2.7 -4 1 C-2 0 -2 0 0 0 Z " fill="#457D7D" transform="translate(95,159)"/>
<path d="M0 0 C1.98 0 3.96 0 6 0 C5.67 0.99 5.34 1.98 5 3 C2.69 3.33 0.38 3.66 -2 4 C-1.34 2.68 -0.68 1.36 0 0 Z " fill="#619191" transform="translate(105,194)"/>
<path d="M0 0 C0.66 0 1.32 0 2 0 C3.7143618 1.95927063 5.38405168 3.95880212 7 6 C2.25 5.25 2.25 5.25 0 3 C0 2.01 0 1.02 0 0 Z " fill="#D1DEDE" transform="translate(56,176)"/>
<path d="M0 0 C1 2 1 2 0.25 4.5625 C-1 7 -1 7 -4 8 C-2.87548273 5.0280615 -1.77706209 2.66559313 0 0 Z " fill="#BDD7D6" transform="translate(147,107)"/>
</svg>
